<svg width="124" height="160" viewBox="0 0 124 160" fill="none" xmlns="http://www.w3.org/2000/svg">
<path d="M123.176 41.395C122.358 36.4514 120.288 32.0099 117.03 28.1837C116.368 27.4057 106.736 17.8296 106.736 17.8296C103.72 14.6895 100.135 12.3414 96.0447 10.8491L70.8696 1.65495C67.8606 0.558723 64.7021 0 61.4797 0C60.875 0 60.2561 0.0212173 59.6372 0.0565796C55.8315 0.304115 52.2533 1.1811 49.0024 2.68046C45.6875 4.20811 42.714 6.41471 40.1744 9.25076C37.6277 12.0939 35.7213 15.4321 34.5191 19.1451L25.2074 47.35C23.8487 51.445 23.4503 55.6531 24.0194 59.8612L24.3111 61.9829L7.48738 72.7401C5.3035 74.1334 4.12975 76.5875 4.4143 79.1478C4.59925 80.8098 5.37464 82.2879 6.55549 83.37C6.69777 83.5256 8.95278 85.7534 9.00969 85.8171L2.23042 104.17C2.18063 104.297 2.13794 104.425 2.09526 104.559L2.05969 104.651C1.44792 106.398 0.999767 108.166 0.72945 109.906C-0.0815015 115.196 0.700995 120.451 3.06271 125.536C4.22223 128.033 5.7232 130.374 7.55851 132.439C8.50462 133.507 18.5917 143.465 19.1181 143.917C19.9646 144.653 20.861 145.332 21.7928 145.954C23.7277 147.241 25.8263 148.281 28.0101 149.073L53.1852 158.26C56.3436 159.413 59.6443 160 62.9806 160C75.1378 160 85.8082 152.27 89.5357 140.77L100.974 106.815C103.635 98.498 102.276 88.4976 96.5497 80.9583L102.682 83.2003C103.621 83.5468 104.602 83.7166 105.598 83.7166C109.134 83.7166 112.321 81.5029 113.544 78.2001L121.846 55.7309C123.546 51.1197 124.001 46.3033 123.19 41.395H123.176Z" fill="#2C2E49"/>
<path d="M109.552 33.0566C108.862 28.9192 107.155 25.2486 104.43 22.0448C101.699 18.8481 98.3835 16.5354 94.4781 15.1067L69.3024 5.91255C66.3075 4.81632 63.1917 4.37783 59.9407 4.58293C56.6826 4.7951 53.6806 5.53064 50.9275 6.79661C48.1674 8.06965 45.7203 9.88727 43.5932 12.2707C41.4591 14.647 39.887 17.4124 38.8697 20.5596L29.5578 48.7716C28.4124 52.2229 28.0781 55.7167 28.5547 59.253L40.6126 51.544C41.7152 50.8367 42.9815 50.469 44.2833 50.469C47.2995 50.469 49.9174 52.3927 50.7924 55.2641L62.2527 92.7339C62.8858 94.8062 62.5088 96.9845 61.2141 98.7243C59.9336 100.443 57.8919 101.468 55.7507 101.468C54.9468 101.468 54.1572 101.327 53.396 101.051L50.8777 100.132L43.6288 119.758C43.5079 120.09 43.33 120.373 43.1095 120.592C42.9032 120.797 42.6542 120.953 42.3697 121.059C41.7721 121.278 41.1817 121.285 40.5912 121.073C40.0079 120.861 39.5597 120.479 39.2467 119.92C38.9337 119.369 38.8981 118.768 39.14 118.124L47.9753 94.2191L54.9824 96.7723C56.6968 97.4017 58.397 95.8034 57.8635 94.0706L46.3961 56.6008C45.9692 55.2004 44.3188 54.5993 43.081 55.3914L29.6645 63.9703L9.94508 76.5805C8.40851 77.5635 8.6646 79.8691 10.379 80.4986L15.1879 82.2526L6.50202 105.776C6.45222 105.903 6.41665 106.037 6.36686 106.165C5.84755 107.657 5.47052 109.135 5.23577 110.613C4.55996 115.026 5.21442 119.369 7.19917 123.648C9.91663 129.482 14.3343 133.521 20.445 135.756L45.6207 144.95C57.9915 149.469 71.8918 143.203 76.0605 130.303L87.4852 96.3833C90.9354 85.5978 86.4751 71.7924 73.1225 66.9195L67.8085 64.9816C63.4122 63.3762 61.1643 58.5386 62.7791 54.1679L71.2943 31.1188C71.5361 30.4681 71.9487 30.0367 72.5534 29.8174C73.151 29.5982 73.7414 29.5911 74.3319 29.8033C74.9152 30.0155 75.3634 30.4044 75.6764 30.9561C75.9894 31.5077 76.0249 32.116 75.7831 32.7596L67.339 55.6177C66.5992 57.6263 67.6307 59.8541 69.651 60.5897L95.1183 69.8899C97.1386 70.6255 99.3794 69.6 100.119 67.5914L108.421 45.1222C109.858 41.2394 110.228 37.2294 109.545 33.092L109.552 33.0566Z" fill="white"/>
</svg>
