<svg width="375" height="784" viewBox="0 0 375 784" fill="none" xmlns="http://www.w3.org/2000/svg">
<g opacity="0.6">
<path d="M473.23 157.672C469.467 134.778 460.087 114.487 445.143 96.7987C430.145 79.1105 411.968 66.3622 390.611 58.4476L252.614 7.61382C236.186 1.55839 219.121 -0.885037 201.262 0.283556C183.403 1.45215 166.975 5.48911 151.872 12.5007C136.715 19.5122 123.308 29.6046 111.649 42.7247C99.937 55.8448 91.2989 71.1428 85.7345 88.5654L34.6478 244.466C28.3415 263.536 26.5397 282.871 29.1894 302.365L95.2735 259.764C101.315 255.887 108.257 253.815 115.411 253.815C131.946 253.815 146.307 264.439 151.13 280.321L213.981 487.427C217.426 498.901 215.412 510.906 208.311 520.52C201.262 530.028 190.081 535.712 178.369 535.712C173.97 535.712 169.625 534.915 165.438 533.374L151.66 528.328L111.914 636.795C111.225 638.654 110.271 640.194 109.105 641.416C107.992 642.585 106.614 643.435 105.024 644.019C101.739 645.241 98.5061 645.294 95.2735 644.072C92.0938 642.903 89.6031 640.779 87.9072 637.698C86.1584 634.617 85.9994 631.324 87.3243 627.765L135.761 495.661L174.182 509.79C183.562 513.243 192.889 504.425 189.975 494.864L127.123 287.757C124.791 280.055 115.729 276.709 108.946 281.065L35.3897 328.446L-72.7189 398.136C-81.145 403.554 -79.7672 416.303 -70.3342 419.808L-43.9959 429.476L-91.6379 559.455C-91.9029 560.199 -92.1149 560.889 -92.3798 561.58C-95.2415 569.813 -97.3083 577.993 -98.5802 586.174C-102.29 610.555 -98.7392 634.564 -87.8223 658.201C-72.9309 690.444 -48.7124 712.753 -15.2199 725.13L122.778 775.911C190.61 800.929 266.816 766.243 289.657 694.959L352.296 507.506C371.215 447.908 346.785 371.63 273.547 344.647L244.4 333.917C220.34 325.046 207.94 298.275 216.79 274.159L263.478 146.783C264.803 143.224 267.081 140.78 270.367 139.559C273.653 138.337 276.885 138.337 280.118 139.505C283.298 140.674 285.788 142.799 287.484 145.88C289.18 148.96 289.392 152.254 288.067 155.866L241.803 282.18C237.723 293.282 243.393 305.605 254.469 309.642L394.056 361.06C405.132 365.15 417.427 359.467 421.507 348.365L467.029 224.175C474.873 202.716 476.939 180.566 473.177 157.672H473.23Z" fill="url(#paint0_linear_1450_2431)"/>
<path d="M473.23 157.672C469.467 134.778 460.087 114.487 445.143 96.7987C430.145 79.1105 411.968 66.3622 390.611 58.4476L252.614 7.61382C236.186 1.55839 219.121 -0.885037 201.262 0.283556C183.403 1.45215 166.975 5.48911 151.872 12.5007C136.715 19.5122 123.308 29.6046 111.649 42.7247C99.937 55.8448 91.2989 71.1428 85.7345 88.5654L34.6478 244.466C28.3415 263.536 26.5397 282.871 29.1894 302.365L95.2735 259.764C101.315 255.887 108.257 253.815 115.411 253.815C131.946 253.815 146.307 264.439 151.13 280.321L213.981 487.427C217.426 498.901 215.412 510.906 208.311 520.52C201.262 530.028 190.081 535.712 178.369 535.712C173.97 535.712 169.625 534.915 165.438 533.374L151.66 528.328L111.914 636.795C111.225 638.654 110.271 640.194 109.105 641.416C107.992 642.585 106.614 643.435 105.024 644.019C101.739 645.241 98.5061 645.294 95.2735 644.072C92.0938 642.903 89.6031 640.779 87.9072 637.698C86.1584 634.617 85.9994 631.324 87.3243 627.765L135.761 495.661L174.182 509.79C183.562 513.243 192.889 504.425 189.975 494.864L127.123 287.757C124.791 280.055 115.729 276.709 108.946 281.065L35.3897 328.446L-72.7189 398.136C-81.145 403.554 -79.7672 416.303 -70.3342 419.808L-43.9959 429.476L-91.6379 559.455C-91.9029 560.199 -92.1149 560.889 -92.3798 561.58C-95.2415 569.813 -97.3083 577.993 -98.5802 586.174C-102.29 610.555 -98.7392 634.564 -87.8223 658.201C-72.9309 690.444 -48.7124 712.753 -15.2199 725.13L122.778 775.911C190.61 800.929 266.816 766.243 289.657 694.959L352.296 507.506C371.215 447.908 346.785 371.63 273.547 344.647L244.4 333.917C220.34 325.046 207.94 298.275 216.79 274.159L263.478 146.783C264.803 143.224 267.081 140.78 270.367 139.559C273.653 138.337 276.885 138.337 280.118 139.505C283.298 140.674 285.788 142.799 287.484 145.88C289.18 148.96 289.392 152.254 288.067 155.866L241.803 282.18C237.723 293.282 243.393 305.605 254.469 309.642L394.056 361.06C405.132 365.15 417.427 359.467 421.507 348.365L467.029 224.175C474.873 202.716 476.939 180.566 473.177 157.672H473.23Z" fill="#72FF8C"/>
</g>
<defs>
<linearGradient id="paint0_linear_1450_2431" x1="-230.384" y1="626.437" x2="386.184" y2="-86.5213" gradientUnits="userSpaceOnUse">
<stop stop-color="#91FF98"/>
<stop offset="1" stop-color="#18F27A"/>
</linearGradient>
</defs>
</svg>
