<svg width="340" height="395" viewBox="0 0 340 395" fill="none" xmlns="http://www.w3.org/2000/svg">
<path d="M108.512 150.54L159.331 161.662L161.816 148.366L108.512 150.54Z" fill="#ECBC96"/>
<path d="M222.09 367.703L209.513 362.269C208.979 362.038 208.674 361.466 208.781 360.894L209.743 355.746C209.87 355.069 210.522 354.622 211.199 354.749L221.042 356.588C222.708 356.899 223.807 358.504 223.496 360.17L222.088 367.702L222.09 367.703Z" fill="#2C2E49"/>
<path d="M196.52 100.056L175.708 113.852C175.708 113.852 175.684 113.778 175.64 113.635C175.234 112.351 173.125 105.487 171.255 96.2812L188.654 83.9472C187.423 99.2152 196.52 100.056 196.52 100.056Z" fill="#ECBC96"/>
<path d="M188.775 82.4347C188.019 94.9757 181.274 106.242 167.936 105.44C159.665 104.942 158.253 90.0866 158.823 80.6345C159.392 71.1822 166.558 63.9231 174.83 64.4212C183.101 64.9193 189.344 72.9843 188.776 82.4366L188.775 82.4347Z" fill="#FFF3D0"/>
<path d="M121.366 304.705L100.77 300.856L96.9201 321.458L117.516 325.307L121.366 304.705Z" fill="#E6E7E8"/>
<path d="M118.788 336.241L119.771 329.595C119.771 329.595 119.973 327.336 120.133 325.274C120.235 323.966 119.076 322.912 117.782 323.138C109.715 324.553 101.216 320.066 97.6294 317.464C97.1576 317.122 96.557 317.01 95.9897 317.143C94.8959 317.4 93.7877 317.604 92.6844 317.8C85.7232 319.023 84.0188 318.277 77.215 316.363C74.3898 315.568 71.4711 314.702 68.5671 315.134C63.3003 315.918 59.0049 321.569 65.8608 327.744C76.853 337.642 104.11 339.593 114.295 339.978C116.524 340.062 118.457 338.453 118.784 336.245L118.788 336.241Z" fill="#2C2E49"/>
<path d="M218.73 226.972L202.522 252.944C197.292 258.85 190.331 262.906 182.695 264.578L153.14 259.055C137.283 257.664 131.639 257.167 120.5 256.188C122.419 273.925 124.713 304.957 125.636 317.845C125.84 320.677 123.139 322.831 120.425 322.004L103.348 316.805L88.2907 312.221C85.6624 311.421 83.882 308.977 83.9261 306.229L84.9995 239.539C83.8917 229.806 91.6089 221.098 101.394 221L102.281 220.991C102.281 220.991 122.094 220.734 141.255 220.487L143.12 210.508L218.73 226.972Z" fill="#1D2D7C"/>
<path d="M183.515 101.732C172.847 110.147 165.163 123.587 162.894 133.85L134.071 214.128C133.093 216.85 134.785 219.801 137.627 220.332L214.922 234.778C217.783 235.312 220.438 233.141 220.48 230.23C221.33 173.473 218.9 108.978 204.162 97.693C196.625 91.9222 187.554 98.5467 183.515 101.733L183.515 101.732Z" fill="#1C75BC"/>
<path d="M23.4129 328.59L21.5359 328.239L19.0274 341.662L20.9044 342.013L23.4129 328.59Z" fill="#464869"/>
<path d="M10.2195 332.227L8.97708 333.678L19.344 342.561L20.5864 341.11L10.2195 332.227Z" fill="#464869"/>
<path d="M19.6526 340.933L6.77714 345.473L7.41177 347.274L20.2873 342.734L19.6526 340.933Z" fill="#464869"/>
<path d="M20.9047 342.011L19.0277 341.66L16.5191 355.083L18.3961 355.434L20.9047 342.011Z" fill="#464869"/>
<path d="M20.5864 341.112L19.344 342.562L29.7109 351.445L30.9533 349.995L20.5864 341.112Z" fill="#464869"/>
<path d="M32.5273 336.394L19.6518 340.934L20.2864 342.735L33.1619 338.196L32.5273 336.394Z" fill="#464869"/>
<path d="M16.2977 361.465C5.47673 359.443 -1.68079 348.992 0.342065 338.168C2.36492 327.344 12.8137 320.183 23.6347 322.206C34.4556 324.228 41.6131 334.679 39.5903 345.503C37.5674 356.327 27.1186 363.488 16.2977 361.465ZM21.7925 332.063C16.4055 331.056 11.2034 334.621 10.1964 340.01C9.18931 345.398 12.7528 350.602 18.1398 351.608C23.5268 352.615 28.729 349.05 29.736 343.661C30.743 338.273 27.1795 333.07 21.7925 332.063Z" fill="#2C2E49"/>
<path d="M17.3114 356.041C9.48119 354.577 4.30128 347.014 5.76505 339.182C7.22883 331.349 14.7907 326.167 22.6209 327.63C30.4512 329.094 35.6311 336.657 34.1673 344.49C32.7035 352.322 25.1417 357.504 17.3114 356.041ZM22.3282 329.196C15.3598 327.894 8.63159 332.505 7.32893 339.475C6.02627 346.446 10.6352 353.176 17.6035 354.478C24.5719 355.78 31.3002 351.169 32.6028 344.199C33.9055 337.228 29.2966 330.499 22.3282 329.196Z" fill="#464869"/>
<path d="M19.1822 346.03C21.4983 346.463 23.7268 344.936 24.1597 342.619C24.5927 340.303 23.0661 338.074 20.7501 337.641C18.4341 337.208 16.2056 338.735 15.7726 341.052C15.3397 343.369 16.8662 345.598 19.1822 346.03Z" fill="#2C2E49"/>
<path d="M24.7967 315.988C18.1958 314.754 11.7112 316.104 6.38239 319.325C5.67618 319.751 5.48294 320.69 5.94997 321.37L19.6291 341.343C19.8453 341.659 20.1786 341.877 20.554 341.947L44.3466 346.393C45.1584 346.545 45.9379 345.987 46.044 345.168C47.8093 331.442 38.5689 318.563 24.7979 315.99L24.7967 315.988Z" fill="#464869"/>
<path d="M70.2619 163.346L22.3085 313.572L34.4355 317.444L82.3888 167.218L70.2619 163.346Z" fill="#2C2E49"/>
<path d="M43.2714 282.907L32.2703 289.315L56.5 329.478L72.475 333.071L43.2714 282.907Z" fill="#2C2E49"/>
<path d="M168.38 366.259L52.0576 344.52C50.9799 344.318 50.269 343.28 50.4704 342.202L52.5518 331.065C52.7532 329.987 53.7911 329.276 54.8688 329.478L174.267 351.791C175.556 352.032 176.262 353.435 175.686 354.615L170.53 365.177C170.139 365.98 169.258 366.423 168.38 366.259Z" fill="#2C2E49"/>
<path d="M201.18 361.811L199.303 361.46L196.794 374.883L198.671 375.234L201.18 361.811Z" fill="#464869"/>
<path d="M187.987 365.449L186.745 366.9L197.112 375.783L198.354 374.332L187.987 365.449Z" fill="#464869"/>
<path d="M197.419 374.154L184.544 378.694L185.179 380.495L198.054 375.955L197.419 374.154Z" fill="#464869"/>
<path d="M198.671 375.233L196.794 374.882L194.286 388.305L196.163 388.656L198.671 375.233Z" fill="#464869"/>
<path d="M198.355 374.332L197.113 375.783L207.48 384.666L208.722 383.216L198.355 374.332Z" fill="#464869"/>
<path d="M210.294 369.615L197.419 374.155L198.053 375.956L210.929 371.416L210.294 369.615Z" fill="#464869"/>
<path d="M194.064 394.687C183.244 392.665 176.086 382.214 178.109 371.39C180.132 360.566 190.581 353.405 201.401 355.427C212.222 357.45 219.38 367.901 217.357 378.725C215.334 389.549 204.885 396.709 194.064 394.687ZM199.559 365.285C194.172 364.278 188.97 367.843 187.963 373.231C186.956 378.62 190.52 383.823 195.907 384.83C201.294 385.837 206.496 382.272 207.503 376.883C208.51 371.495 204.946 366.291 199.559 365.285Z" fill="#2C2E49"/>
<path d="M195.078 389.263C187.248 387.799 182.068 380.236 183.532 372.403C184.996 364.571 192.557 359.389 200.388 360.852C208.218 362.315 213.398 369.879 211.934 377.711C210.47 385.544 202.908 390.726 195.078 389.263ZM200.095 362.418C193.127 361.116 186.398 365.727 185.096 372.697C183.793 379.668 188.402 386.397 195.37 387.699C202.339 389.002 209.067 384.391 210.37 377.42C211.672 370.45 207.063 363.72 200.095 362.418Z" fill="#464869"/>
<path d="M196.949 379.252C199.265 379.685 201.494 378.158 201.927 375.841C202.359 373.524 200.833 371.295 198.517 370.862C196.201 370.43 193.972 371.957 193.539 374.274C193.106 376.59 194.633 378.819 196.949 379.252Z" fill="#2C2E49"/>
<path d="M177.069 259.409L170.989 258.273L154.914 344.29L160.994 345.426L177.069 259.409Z" fill="#464869"/>
<path d="M171.491 298.717L161.995 296.942L152.505 347.724L162.001 349.499L171.491 298.717Z" fill="#2C2E49"/>
<path d="M189.889 257.241C186.427 256.918 181.899 256.492 178.45 256.142C169.826 255.249 161.029 254.41 152.434 253.278C151.883 253.204 149.706 252.89 149.16 252.815C145.856 252.348 142.799 254.648 142.33 257.953C141.082 266.771 159.992 266.262 184.027 277.961C189.457 280.603 196 278.343 198.642 272.911C202.023 266.216 197.331 257.873 189.889 257.241Z" fill="#2C2E49"/>
<path d="M173.185 301.597L159.686 299.074L158.477 305.546L171.976 308.068L173.185 301.597Z" fill="#515378"/>
<path d="M174.548 307.309L172.072 307.545L173.086 302.121L175.309 303.236C176.169 303.667 176.637 304.614 176.461 305.559C176.284 306.504 175.503 307.218 174.547 307.31L174.548 307.309Z" fill="#464869"/>
<path d="M166.638 346.15L149.39 342.927C148.862 342.828 148.354 343.176 148.255 343.704L147.852 345.865C147.753 346.393 148.101 346.901 148.629 347L165.877 350.223C166.405 350.322 166.912 349.974 167.011 349.446L167.415 347.285C167.514 346.757 167.166 346.249 166.638 346.15Z" fill="#2C2E49"/>
<path d="M64.0297 323.846L53.9188 330.775L79.6072 335.576L72.6812 325.463C70.7392 322.627 66.8647 321.903 64.0297 323.846Z" fill="#2C2E49"/>
<path d="M27.8362 306.711L16.9359 340.859L22.9994 342.795L33.8997 308.647L27.8362 306.711Z" fill="#515378"/>
<path d="M221.06 379.417C217.273 378.709 214.247 375.791 213.512 372.008C212.291 365.721 207.351 360.502 200.686 359.256C194.021 358.011 187.145 361.153 183.759 367.11L175.32 362.312C180.751 352.757 191.661 347.694 202.468 349.713C215.743 352.194 224.747 364.499 223.372 377.708C223.254 378.842 222.179 379.628 221.058 379.418L221.06 379.417Z" fill="#464869"/>
<path d="M27.8671 308.939L27.8666 308.94C27.6741 309.543 28.0068 310.188 28.6095 310.381L31.0713 311.167C31.6741 311.359 32.3188 311.026 32.5113 310.423L32.5117 310.422C32.7042 309.819 32.3716 309.174 31.7688 308.982L29.307 308.196C28.7042 308.003 28.0596 308.336 27.8671 308.939Z" fill="#BDC4D9"/>
<path d="M196.943 379.282C176.695 375.498 167.563 359.252 167.185 358.561L174.717 354.422L174.708 354.408C174.728 354.442 176.66 357.859 180.603 361.585C185.765 366.463 191.795 369.576 198.522 370.833L196.943 379.282Z" fill="#2C2E49"/>
<path d="M197.401 376.835C198.382 377.018 199.326 376.371 199.51 375.389C199.693 374.408 199.046 373.463 198.065 373.28C197.084 373.096 196.139 373.744 195.956 374.725C195.772 375.707 196.419 376.651 197.401 376.835Z" fill="#BDC4D9"/>
<path d="M19.6343 343.613C20.6157 343.796 21.5599 343.149 21.7434 342.168C21.9268 341.186 21.28 340.242 20.2986 340.058C19.3173 339.875 18.373 340.522 18.1896 341.503C18.0061 342.485 18.6529 343.43 19.6343 343.613Z" fill="#BDC4D9"/>
<path d="M39.5378 308.651L23.2267 303.506L30.9332 279.368L36.4105 267.791L49.3416 272.364L47.068 285.067L39.5378 308.651Z" fill="#2C2E49"/>
<path d="M139.897 345.368L60.5045 330.531L59.0989 338.052L138.492 352.889L139.897 345.368Z" fill="#515378"/>
<path d="M79.3846 142.618L69.3232 174.138L76.9025 176.558L86.9639 145.038L79.3846 142.618Z" fill="#2C2E49"/>
<path d="M81.6694 151.89C86.1174 152.721 90.3974 149.788 91.2289 145.339C92.0604 140.889 89.1286 136.609 84.6805 135.777C80.2325 134.946 75.9525 137.879 75.121 142.329C74.2895 146.778 77.2213 151.059 81.6694 151.89Z" fill="#2C2E49"/>
<path d="M65.5797 138.56C65.4189 139.421 64.5908 139.988 63.7305 139.827L58.6001 138.869C57.9384 138.745 57.3016 139.181 57.1779 139.843L56.9092 141.281C56.7855 141.943 57.2217 142.58 57.8834 142.704L70.1418 144.994C71.1679 145.186 72.154 144.509 72.3456 143.484L72.9503 140.249C73.1421 139.222 72.4652 138.236 71.4407 138.044L67.427 137.294C66.5667 137.134 65.7387 137.701 65.5778 138.562L65.5797 138.56Z" fill="#2C2E49"/>
<path d="M83.5126 142.035L70.4393 139.591L69.7668 143.19L82.8401 145.633L83.5126 142.035Z" fill="#2C2E49"/>
<path d="M11.05 296.126C10.8921 296.971 11.4908 297.77 12.3457 297.855L22.7245 298.891C23.4826 298.966 24.1718 298.449 24.3115 297.701L25.3993 291.881C25.5393 291.131 25.0835 290.4 24.3491 290.198L14.2967 287.416C13.4686 287.187 12.622 287.715 12.4641 288.56L11.05 296.126Z" fill="#2C2E49"/>
<path d="M156.064 262.406C155.996 262.393 155.932 262.363 155.876 262.316C151.359 258.416 147.782 254.08 145.244 249.428C143.211 245.701 141.835 241.766 141.159 237.731C140.003 230.85 141.261 226.13 141.316 225.931C141.374 225.719 141.591 225.593 141.805 225.652C142.018 225.71 142.142 225.929 142.085 226.141C142.073 226.188 140.816 230.921 141.953 237.639C142.999 243.836 146.357 253.043 156.399 261.712C156.565 261.855 156.584 262.108 156.44 262.273C156.344 262.385 156.2 262.43 156.065 262.404L156.064 262.406Z" fill="#2C2E49"/>
<path d="M27.3999 292.703L24.564 292.173L23.6383 297.127L26.4741 297.657L27.3999 292.703Z" fill="#2C2E49"/>
<path d="M172.793 289.222C172.757 289.215 172.721 289.207 172.686 289.196L164.304 286.517C163.845 286.369 163.59 285.876 163.738 285.417C163.885 284.957 164.378 284.702 164.838 284.85L173.219 287.529C173.679 287.676 173.933 288.169 173.786 288.629C173.65 289.053 173.219 289.303 172.792 289.224L172.793 289.222Z" fill="#2C2E49"/>
<path d="M173.487 285.509C173.451 285.502 173.415 285.494 173.38 285.483L164.998 282.804C164.538 282.656 164.284 282.164 164.432 281.704C164.579 281.244 165.07 280.989 165.531 281.137L173.913 283.816C174.373 283.963 174.627 284.456 174.48 284.916C174.344 285.341 173.913 285.591 173.486 285.511L173.487 285.509Z" fill="#2C2E49"/>
<path d="M174.18 281.798C174.144 281.791 174.109 281.783 174.073 281.771L165.692 279.093C165.232 278.945 164.978 278.452 165.125 277.992C165.273 277.533 165.765 277.278 166.225 277.426L174.607 280.104C175.066 280.252 175.321 280.745 175.173 281.205C175.037 281.629 174.607 281.879 174.18 281.799L174.18 281.798Z" fill="#2C2E49"/>
<path d="M174.874 278.085C174.838 278.078 174.802 278.07 174.767 278.059L166.386 275.38C165.926 275.232 165.672 274.739 165.819 274.28C165.966 273.82 166.458 273.565 166.919 273.713L175.301 276.392C175.76 276.539 176.015 277.032 175.867 277.492C175.731 277.916 175.301 278.166 174.874 278.087L174.874 278.085Z" fill="#2C2E49"/>
<path d="M27.4205 331.703C27.347 331.689 27.2721 331.665 27.2008 331.631L19.9279 328.129C19.4927 327.92 19.3089 327.397 19.5181 326.961C19.7273 326.526 20.2506 326.342 20.6858 326.551L27.9587 330.053C28.3939 330.262 28.5778 330.785 28.3685 331.221C28.1937 331.585 27.799 331.773 27.4189 331.702L27.4205 331.703Z" fill="#2C2E49"/>
<path d="M26.2808 335.229C26.2073 335.215 26.1324 335.191 26.0611 335.157L18.7882 331.655C18.353 331.446 18.1691 330.923 18.3784 330.487C18.5876 330.052 19.1109 329.868 19.5461 330.077L26.819 333.579C27.2542 333.788 27.4381 334.311 27.2288 334.747C27.0539 335.111 26.6593 335.299 26.2792 335.228L26.2808 335.229Z" fill="#2C2E49"/>
<path d="M25.1414 338.753C25.0678 338.739 24.9929 338.715 24.9217 338.681L17.6488 335.18C17.2136 334.97 17.0297 334.447 17.2389 334.012C17.4482 333.576 17.9715 333.392 18.4067 333.602L25.6796 337.103C26.1148 337.312 26.2986 337.836 26.0894 338.271C25.9145 338.635 25.5199 338.824 25.1398 338.753L25.1414 338.753Z" fill="#2C2E49"/>
<path d="M28.5615 328.179C28.488 328.165 28.4131 328.141 28.3418 328.107L21.0689 324.605C20.6337 324.396 20.4498 323.873 20.6591 323.437C20.8683 323.002 21.3916 322.818 21.8268 323.027L29.0997 326.529C29.5349 326.738 29.7188 327.261 29.5095 327.697C29.3346 328.061 28.94 328.249 28.5599 328.178L28.5615 328.179Z" fill="#2C2E49"/>
<path d="M29.7009 324.654C29.6274 324.64 29.5525 324.617 29.4812 324.582L22.2083 321.081C21.7731 320.872 21.5893 320.348 21.7985 319.913C22.0078 319.478 22.531 319.294 22.9662 319.503L30.2391 323.004C30.6743 323.214 30.8582 323.737 30.649 324.172C30.4741 324.536 30.0795 324.725 29.6994 324.654L29.7009 324.654Z" fill="#2C2E49"/>
<path d="M30.8404 321.13C30.7668 321.116 30.692 321.092 30.6207 321.058L23.3478 317.557C22.9126 317.347 22.7287 316.824 22.938 316.389C23.1472 315.953 23.6704 315.769 24.1057 315.979L31.3786 319.48C31.8138 319.689 31.9976 320.213 31.7884 320.648C31.6135 321.012 31.2189 321.201 30.8388 321.13L30.8404 321.13Z" fill="#2C2E49"/>
<path d="M174.347 306.129C174.863 306.226 175.359 305.886 175.455 305.37C175.552 304.854 175.212 304.358 174.696 304.261C174.18 304.165 173.684 304.505 173.588 305.021C173.491 305.537 173.831 306.033 174.347 306.129Z" fill="#2C2E49"/>
<path d="M182.499 103.091L157.551 127.511C147.109 128.667 98.1917 134.084 98.1917 134.084C88.35 135.155 88.5015 149.174 98.3951 149.999L164.302 153.512C166.997 153.647 169.775 152.742 171.915 150.77L201.699 123.311C201.785 123.232 201.917 123.107 202.002 123.024C214.715 109.544 196.208 90.6831 182.501 103.09L182.499 103.091Z" fill="#FFF3D0"/>
<path d="M161.876 123.794L182.348 146.086L205.986 120.895C211.67 114.837 211.164 105.262 204.873 99.8387C199.614 95.3064 191.893 95.1038 186.404 99.3552L162.369 117.972C160.534 119.394 160.306 122.083 161.877 123.794L161.876 123.794Z" fill="#1C75BC"/>
<path d="M103.314 138.915C105.676 142.235 105.61 146.725 102.572 149.651C100.144 151.989 96.378 152.453 93.299 151.257C89.1926 149.661 86.1902 145.639 84.3871 141.766C83.7934 140.49 83.1121 139.649 81.6122 139.628C79.3391 139.595 77.2634 140.697 75.1977 141.494C73.6973 142.074 70.5989 143.2 69.1915 141.973C68.2656 141.167 68.1847 139.374 69.2759 138.663C73.25 136.073 85.2204 127.579 87.7304 127.861C89.9707 128.113 91.687 130.025 93.4432 131.247C95.8368 132.914 98.2288 134.58 100.622 136.247C101.651 136.964 102.579 137.876 103.317 138.915L103.314 138.915Z" fill="#FFF3D0"/>
<path d="M82.1468 149.333C85.1833 149.901 88.1051 147.899 88.6727 144.861C89.2404 141.824 87.2389 138.901 84.2024 138.334C81.1659 137.767 78.2442 139.769 77.6766 142.806C77.1089 145.844 79.1103 148.766 82.1468 149.333Z" fill="#515378"/>
<path d="M187.861 257.907C187.819 257.899 187.777 257.885 187.739 257.863C179.789 253.395 175.457 246.464 173.222 241.438C170.804 235.997 170.268 231.676 170.247 231.494C170.222 231.275 170.377 231.077 170.595 231.052C170.812 231.026 171.011 231.181 171.037 231.4C171.042 231.443 171.583 235.803 173.96 241.139C176.146 246.047 180.377 252.813 188.13 257.169C188.322 257.276 188.39 257.518 188.281 257.71C188.196 257.863 188.023 257.937 187.861 257.907Z" fill="#2C2E49"/>
<path d="M119.392 254.501C119.323 254.489 119.256 254.457 119.201 254.407C119.054 254.275 115.606 251.085 117.011 243.568C117.051 243.352 117.259 243.21 117.475 243.25C117.691 243.291 117.834 243.499 117.793 243.715C116.477 250.76 119.701 253.787 119.734 253.816C119.896 253.962 119.909 254.214 119.762 254.378C119.666 254.484 119.525 254.528 119.393 254.503L119.392 254.501Z" fill="#2C2E49"/>
<path d="M119.456 254.827C119.424 254.822 119.392 254.812 119.363 254.797C114.921 252.757 111.975 248.115 111.852 247.919C111.734 247.733 111.791 247.488 111.977 247.37C112.164 247.253 112.409 247.31 112.525 247.495C112.553 247.541 115.472 252.135 119.694 254.074C119.893 254.166 119.981 254.401 119.89 254.601C119.813 254.77 119.631 254.859 119.456 254.826L119.456 254.827Z" fill="#2C2E49"/>
<path d="M165.734 136.356C165.601 136.332 165.484 136.24 165.434 136.103C165.415 136.049 163.393 130.718 158.444 128.365C158.246 128.271 158.161 128.033 158.255 127.834C158.349 127.636 158.588 127.551 158.786 127.645C164.034 130.138 166.095 135.595 166.18 135.826C166.256 136.033 166.15 136.261 165.945 136.338C165.875 136.363 165.803 136.368 165.735 136.355L165.734 136.356Z" fill="#2C2E49"/>
<path d="M182.352 147.641C182.341 147.644 182.334 147.647 182.339 147.647C182.347 147.647 182.351 147.644 182.352 147.641Z" fill="#2C2E49"/>
<path d="M202.259 122.723C202.092 122.58 201.84 122.599 201.699 122.767L184.398 143.068C183.303 144.352 181.333 144.388 180.192 143.147L175.167 137.675C175.009 137.504 174.734 137.502 174.575 137.681C174.435 137.837 174.454 138.078 174.595 138.231L179.62 143.702C181.076 145.288 183.59 145.241 184.986 143.602L202.302 123.283C202.445 123.115 202.424 122.864 202.258 122.722L202.259 122.723Z" fill="#2C2E49"/>
<path d="M41.1038 283.068C41.0866 283.065 41.0709 283.062 41.0543 283.056L32.6641 280.344C32.455 280.276 32.3399 280.052 32.4081 279.843C32.4763 279.634 32.6983 279.52 32.9092 279.587L41.2995 282.298C41.5085 282.366 41.6237 282.59 41.5555 282.799C41.4936 282.992 41.2978 283.104 41.1038 283.068Z" fill="#464869"/>
<path d="M167.851 106.854C167.518 106.834 167.266 106.548 167.286 106.215C167.306 105.882 167.591 105.63 167.924 105.65C173.775 106.002 178.356 102.944 181.544 96.5605C183.966 91.7068 184.627 86.6647 184.633 86.6141C184.675 86.2836 184.974 86.0513 185.307 86.0907C185.637 86.1331 185.872 86.4345 185.83 86.765C185.803 86.9785 185.144 92.0371 182.636 97.0723C181.149 100.059 179.318 102.405 177.195 104.047C174.512 106.12 171.37 107.066 167.851 106.854Z" fill="#2C2E49"/>
<path d="M169.808 105.558L166.781 105.375C166.103 105.335 165.521 105.851 165.48 106.527C165.44 107.204 165.956 107.786 166.633 107.827L169.66 108.009C170.338 108.05 170.92 107.534 170.96 106.857C171.001 106.18 170.485 105.598 169.808 105.558Z" fill="#2C2E49"/>
<path d="M154.979 76.2809C154.729 77.8113 155.76 79.2589 157.288 79.5267C163.377 80.5917 176.074 82.4496 179.035 82.9786C182.359 83.5723 177.663 94.9496 190.458 90.7487C194.987 89.2617 196.711 73.7164 190.517 66.4607C181.625 56.0452 158.475 54.959 154.979 76.2825L154.979 76.2809Z" fill="#2C2E49"/>
<path d="M185.181 92.1006C184.224 92.0432 183.414 91.8109 182.745 91.4073C180.867 90.2711 180.489 88.0079 180.184 86.1892C179.91 84.5478 179.69 83.5416 178.957 83.4095C177.69 83.184 174.611 82.7089 171.046 82.161C166.19 81.4138 160.686 80.5665 157.212 79.9594C155.454 79.6518 154.257 77.9709 154.546 76.2112C154.585 75.9725 154.81 75.8104 155.05 75.8489C155.289 75.8886 155.451 76.1132 155.413 76.3538C155.201 77.6405 156.077 78.8697 157.364 79.0956C160.83 79.7012 166.33 80.5476 171.181 81.2955C174.751 81.8446 177.833 82.3202 179.112 82.5478C180.507 82.7973 180.771 84.3751 181.051 86.0468C181.34 87.7735 181.667 89.7324 183.2 90.6585C184.632 91.5235 187.027 91.4141 190.321 90.3327C190.55 90.2574 190.799 90.3831 190.874 90.6126C190.949 90.842 190.823 91.0905 190.594 91.1659C188.426 91.878 186.633 92.1889 185.181 92.1022L185.181 92.1006Z" fill="#ED1C24"/>
<path d="M140.013 312.188L119.417 308.339L115.567 328.94L136.163 332.789L140.013 312.188Z" fill="#E6E7E8"/>
<path d="M137.435 343.724L138.418 337.078C138.418 337.078 138.62 334.819 138.78 332.757C138.882 331.448 137.723 330.395 136.429 330.621C128.362 332.036 119.863 327.549 116.277 324.947C115.805 324.605 115.204 324.492 114.637 324.626C113.543 324.883 112.435 325.087 111.332 325.283C104.37 326.506 102.666 325.76 95.8622 323.846C93.0371 323.051 90.1183 322.185 87.2144 322.617C81.9476 323.401 77.6522 329.052 84.5081 335.227C95.5003 345.125 122.757 347.076 132.942 347.461C135.172 347.545 137.104 345.936 137.431 343.728L137.435 343.724Z" fill="#2C2E49"/>
<path d="M211.313 333.662L191.992 325.556L183.887 344.884L203.208 352.989L211.313 333.662Z" fill="#5CFFA5"/>
<path d="M258.635 179.384L246.558 214.469L220.655 239.245C218.315 241.18 216.447 243.626 215.198 246.394L181.89 320.171C180.578 323.077 181.87 326.497 184.775 327.809L216.029 341.925C219.049 343.289 222.595 341.835 223.788 338.742C230.179 322.179 248.405 274.74 250.215 267.627L298.82 241.251C312.819 233.654 323.499 221.125 328.787 206.099C330.503 201.222 332.112 196.666 333.302 193.341L258.633 179.386L258.635 179.384Z" fill="#00C882"/>
<path d="M227.576 109.64L278.501 120.272L280.856 106.951L227.576 109.64Z" fill="#3DE086"/>
<path d="M315.092 58.3068L294.413 72.3045C294.413 72.3045 294.39 72.2305 294.344 72.0891C293.925 70.8094 291.75 63.9647 289.791 54.7783L307.069 42.276C305.986 57.5555 315.09 58.3065 315.09 58.3065L315.092 58.3068Z" fill="#3DE086"/>
<path d="M307.177 40.7611C306.543 53.3087 299.908 64.639 286.561 63.9666C278.287 63.5487 276.732 48.7073 277.209 39.2508C277.686 29.7943 284.783 22.4656 293.058 22.8834C301.332 23.3013 307.654 31.3047 307.177 40.7627L307.177 40.7611Z" fill="#5CFFA5"/>
<path d="M302.079 60.2456C291.464 68.9179 283.869 82.6524 281.67 93.0931L253.391 174.909C252.432 177.684 254.145 180.656 256.992 181.158L334.426 194.842C337.292 195.348 339.931 193.112 339.956 190.158C340.411 132.559 337.533 67.151 322.709 55.8864C315.128 50.1263 306.098 56.961 302.079 60.2456Z" fill="#28EDA8"/>
<path d="M301.1 61.4777L276.391 86.1381C265.961 87.395 217.097 93.2868 217.097 93.2868C207.267 94.4534 207.553 108.468 217.455 109.2L283.394 112.074C286.09 112.183 288.859 111.253 290.98 109.258L320.496 81.5105C320.581 81.4292 320.711 81.3045 320.796 81.2201C333.378 67.6183 314.688 48.9367 301.103 61.4748L301.1 61.4777Z" fill="#5CFFA5"/>
<path d="M280.68 82.378L301.367 104.471L324.759 79.0525C330.386 72.9403 329.787 63.3702 323.442 58.0084C318.14 53.5263 310.416 53.3993 304.969 57.7039L281.116 76.5524C279.294 77.9916 279.093 80.6824 280.68 82.378Z" fill="#28EDA8"/>
<path d="M222.266 98.0662C224.66 101.363 224.638 105.853 221.628 108.809C219.223 111.171 215.462 111.671 212.371 110.504C208.249 108.948 205.207 104.955 203.367 101.099C202.761 99.8293 202.07 98.9942 200.571 98.9877C198.298 98.9775 196.233 100.099 194.174 100.916C192.679 101.509 189.591 102.665 188.173 101.452C187.241 100.655 187.142 98.8632 188.225 98.1411C192.174 95.5126 204.063 86.903 206.574 87.1602C208.815 87.3896 210.552 89.2866 212.318 90.491C214.727 92.1347 217.136 93.7783 219.544 95.4201C220.581 96.1271 221.516 97.0306 222.266 98.0612L222.266 98.0662Z" fill="#5CFFA5"/>
<path d="M284.659 94.9035C284.526 94.8786 284.408 94.7886 284.356 94.6525C284.335 94.5985 282.263 89.2871 277.292 86.9833C277.092 86.8909 277.005 86.6544 277.098 86.4547C277.19 86.255 277.428 86.1699 277.626 86.2604C282.899 88.703 285.012 94.1388 285.1 94.369C285.178 94.5747 285.075 94.8048 284.87 94.8814C284.8 94.9073 284.728 94.9132 284.659 94.9019L284.659 94.9035Z" fill="#00C882"/>
<path d="M301.385 106.027C301.375 106.03 301.368 106.034 301.373 106.033C301.381 106.033 301.385 106.03 301.385 106.027Z" fill="#2C2E49"/>
<path d="M321.049 80.9175C320.881 80.776 320.629 80.7986 320.489 80.9683L303.385 101.436C302.303 102.73 300.333 102.786 299.181 101.556L294.103 96.1324C293.944 95.9618 293.67 95.9641 293.512 96.1434C293.375 96.3009 293.395 96.541 293.537 96.6922L298.615 102.115C300.086 103.686 302.599 103.614 303.979 101.963L321.098 81.4772C321.239 81.3094 321.217 81.0574 321.047 80.9172L321.049 80.9175Z" fill="#00C882"/>
<path d="M277.325 21.679C276.459 23.1139 275.853 24.73 275.512 26.3908C275.084 28.471 275.015 30.7039 275.862 32.6531C277.879 37.2952 284.49 36.777 288.585 36.7344C290.393 36.7161 292.355 36.7895 294.03 37.5462C296.354 38.5975 296.389 40.4501 296.282 42.7326C296.244 43.5208 296.256 45.0725 297.126 45.4797C297.543 45.6742 298.027 45.3987 298.353 45.0758C299.25 44.1909 299.646 42.9534 300.442 41.9946C301.307 40.9515 303.16 41.3091 304.214 41.8396C304.581 42.0247 304.934 42.2722 305.142 42.6267C305.417 43.0958 305.398 43.6786 305.317 44.2172C305.034 46.0814 304.105 47.7781 303.131 49.3935C302.967 49.6656 302.757 50.0086 302.743 50.3315C302.734 50.5533 302.857 50.7965 303.072 50.8496C303.869 51.0471 305.189 50.1019 305.797 49.6715C306.712 49.028 307.507 48.2197 308.178 47.3264C309.805 45.1564 310.908 42.477 311.413 39.8217C312.506 34.0736 310.494 28.2033 305.805 24.6196C302.656 22.2127 298.753 20.9165 294.852 20.4272C293 20.1944 291.006 20.0824 289.531 18.9373C287.635 17.4623 286.565 15.9524 283.87 16.6275C280.979 17.352 278.786 19.2561 277.326 21.6793L277.325 21.679Z" fill="#00C882"/>
<path d="M202.144 363.946L204.506 357.656C204.506 357.656 205.179 355.491 205.772 353.509C206.147 352.252 205.237 350.975 203.925 350.925C195.742 350.606 188.38 344.429 185.422 341.129C185.032 340.693 184.471 340.457 183.886 340.468C182.764 340.488 181.637 340.455 180.518 340.412C173.456 340.139 171.947 339.051 165.7 335.744C163.106 334.371 160.434 332.908 157.506 332.719C152.192 332.375 146.803 336.995 152.204 344.475C160.862 356.469 187.095 364.123 196.971 366.647C199.132 367.2 201.36 366.034 202.146 363.945L202.144 363.946Z" fill="#00C882"/>
<path d="M214.925 234.776L205.762 248.713C204.776 250.212 203.693 251.624 202.522 252.944C197.292 258.85 190.331 262.906 182.695 264.578C179.552 265.267 176.294 265.551 172.996 265.395C159.871 264.774 146.183 264.29 139.147 263.673C141.066 281.41 143.361 312.44 144.283 325.328C144.487 328.161 141.786 330.314 139.072 329.487L106.938 319.704C105.371 319.227 104.106 318.166 103.348 316.805C102.834 315.883 102.555 314.822 102.573 313.713L103.647 247.022C102.539 237.288 110.256 228.583 120.041 228.484L120.928 228.474C120.928 228.474 145.865 225.698 165.026 225.451L214.925 234.776Z" fill="#2B3990"/>
<path d="M23.2954 21.9462C23.2954 10.9005 32.2497 1.94623 43.2954 1.94623H111.036C122.082 1.94623 131.036 10.9005 131.036 21.9462V99.0097H43.2954C32.2497 99.0097 23.2954 90.0553 23.2954 79.0097V21.9462Z" fill="url(#paint0_linear_561_3372)"/>
<path d="M23.2954 21.9462C23.2954 10.9005 32.2497 1.94623 43.2954 1.94623H111.036C122.082 1.94623 131.036 10.9005 131.036 21.9462V99.0097H43.2954C32.2497 99.0097 23.2954 90.0553 23.2954 79.0097V21.9462Z" stroke="white" stroke-width="2"/>
<rect x="96.1938" y="26.8629" width="11.4575" height="59.3709" rx="2" transform="rotate(45 96.1938 26.8629)" fill="#FF5858"/>
<rect width="11.4575" height="59.3709" rx="2" transform="matrix(-0.707107 0.707107 0.707107 0.707107 62.3145 26.8629)" fill="#FF5858"/>
<defs>
<linearGradient id="paint0_linear_561_3372" x1="128.288" y1="99.0097" x2="33.0631" y2="17.4863" gradientUnits="userSpaceOnUse">
<stop offset="0.184834" stop-color="#DEFFED"/>
<stop offset="1" stop-color="#6FFFB0" stop-opacity="0"/>
</linearGradient>
</defs>
</svg>
