<svg width="345" height="388" viewBox="0 0 345 388" fill="none" xmlns="http://www.w3.org/2000/svg">
<g clip-path="url(#clip0_561_3261)">
<path d="M70.7173 56.0059L-6.18713 58.3685V38.3711L70.7173 56.0059Z" fill="#ECBC96"/>
<path d="M10.1437 276.554H41.1318V307.538H10.1437V276.554Z" fill="#E6E7E8"/>
<path d="M5.32381 323.083L5.70038 313.158C5.70038 313.158 6.02045 309.821 6.34758 306.78C6.55469 304.851 8.52689 303.634 10.3461 304.314C21.6899 308.562 35.2647 304.35 41.186 301.542C41.965 301.173 42.8688 301.173 43.6572 301.521C45.1775 302.192 46.7332 302.789 48.2841 303.373C60.1261 307.811 71.7893 309.246 83.1226 313.158C90.5666 315.727 93.7906 319.486 84.5794 325.109C65.9093 336.508 25.752 331.941 10.8404 329.733C7.57609 329.251 5.20379 326.387 5.32852 323.09L5.32381 323.083Z" fill="#2C2E49"/>
<path d="M-85.0525 201.583L-110.289 137.144L-15.5 143.5L4.10883 148.761C31.8986 154.324 60.6345 160.076 60.6345 160.076L61.9219 160.332C76.1204 163.132 84.9765 177.88 80.7214 191.726L64.16 288.934C63.4775 292.939 60.225 296.005 56.1888 296.455L6.81297 301.945C2.64027 302.408 -0.69931 298.547 0.364456 294.485C5.21026 276.005 16.9776 231.533 24.5864 206.278C8.12621 204.673 -0.214493 203.861 -23.6457 201.579H-85.0501L-85.0525 201.583Z" fill="#2B3990"/>
<path d="M146.061 337.866H148.885V358.054H146.061V337.866Z" fill="#464869"/>
<path d="M164.254 346.737L165.667 349.182L148.181 359.276L146.769 356.831L164.254 346.737Z" fill="#464869"/>
<path d="M148.173 356.827L165.659 366.921L164.247 369.367L146.761 359.273L148.173 356.827Z" fill="#464869"/>
<path d="M146.061 358.052H148.885V378.24H146.061V358.052Z" fill="#464869"/>
<path d="M146.77 356.832L148.182 359.278L130.696 369.372L129.284 366.926L146.77 356.832Z" fill="#464869"/>
<path d="M130.691 346.735L148.177 356.829L146.765 359.274L129.279 349.18L130.691 346.735Z" fill="#464869"/>
<path d="M147.473 387.575C163.755 387.575 177 374.331 177 358.052C177 341.772 163.755 328.529 147.473 328.529C131.192 328.529 117.947 341.772 117.947 358.052C117.947 374.331 131.192 387.575 147.473 387.575ZM147.473 343.354C155.579 343.354 162.173 349.947 162.173 358.052C162.173 366.156 155.579 372.75 147.473 372.75C139.368 372.75 132.774 366.156 132.774 358.052C132.774 349.947 139.368 343.354 147.473 343.354Z" fill="#2C2E49"/>
<path d="M147.474 379.416C159.255 379.416 168.841 369.832 168.841 358.052C168.841 346.272 159.255 336.687 147.474 336.687C135.692 336.687 126.106 346.272 126.106 358.052C126.106 369.832 135.692 379.416 147.474 379.416ZM147.474 339.043C157.958 339.043 166.487 347.571 166.487 358.054C166.487 368.538 157.958 377.065 147.474 377.065C136.989 377.065 128.46 368.538 128.46 358.054C128.46 347.571 136.989 339.043 147.474 339.043Z" fill="#464869"/>
<path d="M147.474 364.361C143.989 364.361 141.164 361.536 141.164 358.052C141.164 354.567 143.989 351.743 147.474 351.743C150.958 351.743 153.783 354.567 153.783 358.052C153.783 361.536 150.958 364.361 147.474 364.361Z" fill="#2C2E49"/>
<path d="M147.473 319.177C157.405 319.177 166.466 322.9 173.338 329.027C174.249 329.839 174.275 331.256 173.411 332.117L148.097 357.428C147.697 357.828 147.153 358.054 146.589 358.054H110.79C109.568 358.054 108.587 357.03 108.655 355.811C109.818 335.386 126.751 319.179 147.471 319.179L147.473 319.177Z" fill="#464869"/>
<path d="M122.847 85.0062L151.747 316.343L133.064 318.677L104.164 87.3395L122.847 85.0062Z" fill="#2C2E49"/>
<path d="M129.609 266.089L143.862 278.39L87.7749 343.359L73.5224 331.058L129.609 266.089Z" fill="#2C2E49"/>
<path d="M-74.9319 353.237H100.089C101.71 353.237 103.026 351.922 103.026 350.3V333.55C103.026 331.929 101.71 330.613 100.089 330.613H-79.5589C-81.4981 330.613 -82.9055 332.461 -82.3901 334.331L-77.7632 351.081C-77.4125 352.355 -76.2522 353.237 -74.9319 353.237Z" fill="#2C2E49"/>
<path d="M88.3002 319.942L101.117 332.757H62.4661L75.2831 319.942C78.8769 316.348 84.7064 316.348 88.3002 319.942Z" fill="#2C2E49"/>
<path d="M145.575 304.872L152.144 357.457L142.803 358.624L136.233 306.039L145.575 304.872Z" fill="#515378"/>
<path d="M144.924 308.106L144.925 308.108C145.041 309.037 144.382 309.883 143.453 309.999L139.661 310.473C138.732 310.589 137.885 309.93 137.769 309.002L137.769 309C137.653 308.071 138.312 307.224 139.24 307.108L143.033 306.635C143.962 306.519 144.808 307.177 144.924 308.106Z" fill="#BDC4D9"/>
<path d="M147.473 360.725C145.996 360.725 144.799 359.528 144.799 358.052C144.799 356.575 145.996 355.378 147.473 355.378C148.949 355.378 150.146 356.575 150.146 358.052C150.146 359.528 148.949 360.725 147.473 360.725Z" fill="#BDC4D9"/>
<path d="M128.036 304.512L153.147 301.465L148.502 264.294L143.684 245.981L123.642 249.116L123.496 268.193L128.036 304.512Z" fill="#2C2E49"/>
<path d="M-27.8463 330.613H91.6089V341.925H-27.8463V330.613Z" fill="#515378"/>
<path d="M115.216 52.4063L121.28 100.945L109.603 102.403L103.539 53.8647L115.216 52.4063Z" fill="#2C2E49"/>
<path d="M109.375 65.2586C102.683 65.2586 97.2571 59.8339 97.2571 53.1421C97.2571 46.4503 102.683 41.0255 109.375 41.0255C116.068 41.0255 121.493 46.4503 121.493 53.1421C121.493 59.8339 116.068 65.2586 109.375 65.2586Z" fill="#2C2E49"/>
<path d="M136.389 50.2571C136.389 51.5513 137.438 52.6008 138.733 52.6008H146.452C147.448 52.6008 148.255 53.408 148.255 54.4034V56.566C148.255 57.5614 147.448 58.3685 146.452 58.3685H128.008C126.464 58.3685 125.214 57.1166 125.214 55.5753V50.7089C125.214 49.1652 126.466 47.9156 128.008 47.9156H134.047C135.341 47.9156 136.391 48.9652 136.391 50.2594L136.389 50.2571Z" fill="#2C2E49"/>
<path d="M109.373 50.4359H129.043V55.8482H109.373V50.4359Z" fill="#2C2E49"/>
<path d="M172.856 282.67V294.047C172.856 295.318 171.769 296.316 170.502 296.208L155.132 294.894C154.009 294.798 153.148 293.859 153.148 292.734V283.98C153.148 282.853 154.009 281.914 155.132 281.82L170.502 280.507C171.769 280.399 172.856 281.397 172.856 282.667V282.67Z" fill="#2C2E49"/>
<path d="M150.015 284.632H154.282V292.082H150.015V284.632Z" fill="#2C2E49"/>
<path d="M139.39 341.302C139.5 341.302 139.616 341.288 139.729 341.257L151.253 338.144C151.943 337.958 152.353 337.247 152.167 336.558C151.981 335.868 151.27 335.459 150.58 335.645L139.055 338.758C138.366 338.944 137.956 339.654 138.142 340.344C138.298 340.92 138.82 341.302 139.392 341.302H139.39Z" fill="#696A8E"/>
<path d="M140.089 346.735C140.199 346.735 140.315 346.721 140.428 346.69L151.953 343.577C152.642 343.391 153.052 342.681 152.866 341.991C152.68 341.302 151.969 340.892 151.28 341.078L139.755 344.191C139.065 344.377 138.656 345.088 138.841 345.777C138.997 346.354 139.519 346.735 140.091 346.735H140.089Z" fill="#696A8E"/>
<path d="M140.787 352.166C140.898 352.166 141.013 352.152 141.126 352.122L152.651 349.008C153.34 348.822 153.75 348.112 153.564 347.422C153.378 346.733 152.667 346.323 151.978 346.509L140.453 349.623C139.763 349.808 139.354 350.519 139.54 351.209C139.695 351.785 140.218 352.166 140.789 352.166H140.787Z" fill="#696A8E"/>
<path d="M138.688 335.871C138.799 335.871 138.914 335.856 139.027 335.826L150.552 332.713C151.242 332.527 151.651 331.816 151.465 331.126C151.28 330.437 150.569 330.028 149.879 330.213L138.354 333.327C137.665 333.513 137.255 334.223 137.441 334.913C137.596 335.489 138.119 335.871 138.691 335.871H138.688Z" fill="#696A8E"/>
<path d="M137.989 330.439C138.1 330.439 138.215 330.425 138.328 330.395L149.853 327.281C150.543 327.095 150.952 326.385 150.766 325.695C150.58 325.006 149.87 324.596 149.18 324.782L137.655 327.896C136.965 328.081 136.556 328.792 136.742 329.482C136.897 330.058 137.42 330.439 137.992 330.439H137.989Z" fill="#696A8E"/>
<path d="M137.29 325.008C137.401 325.008 137.516 324.994 137.629 324.963L149.154 321.85C149.843 321.664 150.253 320.954 150.067 320.264C149.881 319.575 149.17 319.165 148.481 319.351L136.956 322.464C136.266 322.65 135.857 323.361 136.043 324.05C136.198 324.627 136.72 325.008 137.292 325.008H137.29Z" fill="#696A8E"/>
<path d="M-23.9561 -33.0411L-23.3301 -32.1492L5.67879 9.22218C20.5457 13.7379 90.192 34.8955 90.192 34.8955C104.209 39.1241 100.18 59.4557 85.5721 57.9685L-11.2003 45.1742C-15.1541 44.6376 -18.9479 42.5692 -21.5226 39.1218L-22.6594 37.5993L-57.3637 -8.87149C-57.4672 -9.01032 -57.6249 -9.22681 -57.7261 -9.37036C-72.5459 -32.4128 -40.5152 -54.7963 -23.9585 -33.0434L-23.9561 -33.0411Z" fill="#FFF3D0"/>
<path d="M81.4324 40.5243C77.0973 44.7082 75.9724 51.2501 79.5943 56.3283C82.4891 60.3852 87.8386 62.0818 92.6396 61.1806C99.0434 59.9757 104.501 54.947 108.175 49.8076C109.385 48.1157 110.604 47.0779 112.79 47.4544C116.104 48.0239 118.822 50.1888 121.609 51.909C123.633 53.1585 127.831 55.6364 130.21 54.2363C131.776 53.3162 132.38 50.7324 130.987 49.4028C125.913 44.56 110.818 28.9654 107.092 28.6924C103.767 28.4501 100.752 30.7632 97.8667 32.0622C93.9341 33.8341 90.0038 35.6061 86.0711 37.3781C84.3813 38.1405 82.7833 39.2135 81.4277 40.5243H81.4324Z" fill="#FFF3D0"/>
<path d="M109.375 61.4136C104.807 61.4136 101.103 57.7103 101.103 53.1421C101.103 48.5739 104.807 44.8707 109.375 44.8707C113.944 44.8707 117.648 48.5739 117.648 53.1421C117.648 57.7103 113.944 61.4136 109.375 61.4136Z" fill="#515378"/>
<path d="M26.6529 204.132C26.7565 204.132 26.8624 204.104 26.9565 204.047C27.206 203.894 33.085 200.195 33.085 188.89C33.085 188.566 32.8214 188.302 32.4966 188.302C32.1718 188.302 31.9082 188.566 31.9082 188.89C31.9082 199.487 26.3987 203.009 26.3423 203.042C26.0669 203.212 25.9798 203.574 26.1493 203.852C26.2599 204.033 26.4529 204.134 26.6506 204.134L26.6529 204.132Z" fill="#2C2E49"/>
<path d="M26.4716 204.589C26.5187 204.589 26.5681 204.584 26.6152 204.57C33.6262 202.812 39.1709 196.865 39.4039 196.614C39.6252 196.376 39.6087 196.004 39.371 195.783C39.1309 195.562 38.7591 195.578 38.5402 195.816C38.4861 195.875 32.9954 201.758 26.3304 203.428C26.015 203.508 25.8244 203.826 25.9021 204.141C25.968 204.407 26.208 204.586 26.4716 204.586V204.589Z" fill="#2C2E49"/>
<path d="M132.71 266.908C132.736 266.908 132.76 266.908 132.786 266.903L145.72 265.242C146.043 265.2 146.271 264.905 146.229 264.583C146.186 264.261 145.895 264.035 145.57 264.075L132.635 265.736C132.313 265.778 132.084 266.073 132.127 266.395C132.164 266.691 132.419 266.908 132.71 266.908Z" fill="#464869"/>
</g>
<path d="M157 65H324C335.046 65 344 73.9543 344 85V213C344 224.046 335.046 233 324 233H177C165.954 233 157 224.046 157 213V65Z" fill="url(#paint0_linear_561_3261)"/>
<path d="M157 65H324C335.046 65 344 73.9543 344 85V213C344 224.046 335.046 233 324 233H177C165.954 233 157 224.046 157 213V65Z" stroke="white" stroke-width="2"/>
<path d="M309.502 116.663H292.637V134.755H309.502V116.663Z" fill="#464869"/>
<path d="M310.215 101.973H291.922C290.127 101.973 288.671 103.421 288.671 105.207V116.831C288.671 118.617 290.127 120.065 291.922 120.065H310.215C312.01 120.065 313.466 118.617 313.466 116.831V105.207C313.466 103.421 312.01 101.973 310.215 101.973Z" fill="#2C2E49"/>
<path d="M282.132 93.6289C281.817 93.7992 281.491 93.9852 281.157 94.1812C281.272 94.102 281.395 94.0268 281.523 93.9575L282.132 93.627V93.6289Z" fill="#0B0D0F"/>
<path d="M320.505 101.036L305.525 109.16C302.712 110.686 299.314 110.686 296.501 109.16L289.081 105.138C288.888 105.255 276.521 112.777 264.655 112.777C255.294 112.777 223.286 111.724 211.719 104.843C210.698 104.235 209.836 103.582 209.162 102.881C208.561 102.024 208.211 100.983 208.211 99.8585V97.6513C208.211 94.7236 210.598 92.3502 213.539 92.3502C215.009 92.3502 216.342 92.9421 217.305 93.9021C218.27 94.8622 218.867 96.1865 218.867 97.6494V99.8565C218.863 99.908 218.863 99.9614 218.867 100.011C218.963 105.773 241.708 105.29 251.96 105.29C265.614 105.29 275.075 97.7562 281.143 94.1872C281.147 94.1832 281.149 94.1812 281.153 94.1812C281.487 93.9833 281.813 93.7992 282.128 93.629C282.134 93.625 282.14 93.623 282.146 93.6191L296.499 85.8336C299.312 84.3074 302.71 84.3074 305.523 85.8336L320.503 93.9595C323.32 95.4857 323.32 99.5081 320.503 101.036H320.505Z" fill="#2C2E49"/>
<path d="M211.721 104.843C210.676 104.465 209.787 103.772 209.164 102.881C209.837 103.584 210.698 104.235 211.721 104.843Z" fill="#0B0D0F"/>
<path d="M343.838 130.945H267.633V150.54H343.838V130.945Z" fill="#464869"/>
<path d="M178.914 127.243H263.869C265.948 127.243 267.634 128.92 267.634 130.988V150.496C267.634 152.565 265.948 154.242 263.869 154.242H247.875C218.159 154.242 213.839 164.793 191.285 164.793C175.741 164.795 171.473 154.068 171.473 150.223V134.646C171.473 130.559 174.804 127.243 178.914 127.243Z" fill="#2C2E49"/>
<path d="M250.458 85.8712C245.576 85.8712 241.618 89.8085 241.618 94.6662C241.618 89.8085 237.661 85.8712 232.779 85.8712C227.896 85.8712 223.939 89.8085 223.939 94.6662V118.052C223.939 113.196 219.982 109.259 215.099 109.259C210.217 109.259 206.259 113.196 206.259 118.054V124.321C206.259 119.464 202.302 115.526 197.42 115.526C192.537 115.526 188.58 119.464 188.58 124.321V232.344H259.29V94.6643C259.29 89.8065 255.333 85.8693 250.45 85.8693L250.458 85.8712Z" fill="#FFF3D0"/>
<path d="M241.618 124.775C241.288 124.775 241.021 124.509 241.021 124.181V93.8249C241.021 93.4963 241.288 93.2311 241.618 93.2311C241.949 93.2311 242.215 93.4963 242.215 93.8249V124.181C242.215 124.509 241.949 124.775 241.618 124.775Z" fill="#0B0D0F"/>
<path d="M268.123 123.019H293.571C295.856 123.019 297.712 124.864 297.712 127.138V157.892H263.982V127.138C263.982 124.866 265.837 123.019 268.123 123.019Z" fill="#2C2E49"/>
<path d="M287.116 175.664H274.581C272.045 175.664 269.783 174.077 268.931 171.699L263.985 157.89H297.714L292.768 171.699C291.917 174.077 289.654 175.664 287.118 175.664H287.116Z" fill="#2C2E49"/>
<path d="M280.848 129.492C286.925 129.492 291.867 134.409 291.867 140.454C291.867 146.5 286.925 151.417 280.848 151.417C274.772 151.417 269.83 146.5 269.83 140.454C269.83 134.409 274.772 129.492 280.848 129.492ZM280.848 127.314C273.555 127.314 267.642 133.198 267.642 140.454C267.642 147.711 273.555 153.594 280.848 153.594C288.142 153.594 294.055 147.711 294.055 140.454C294.055 133.198 288.142 127.314 280.848 127.314Z" fill="white"/>
<path d="M292.024 141.543H280.848C280.243 141.543 279.754 141.056 279.754 140.454C279.754 139.853 280.243 139.366 280.848 139.366H292.024C292.628 139.366 293.118 139.853 293.118 140.454C293.118 141.056 292.628 141.543 292.024 141.543Z" fill="#464869"/>
<path d="M343.836 94.8424H308.278V98.7322H343.836V94.8424Z" fill="#2C2E49"/>
<defs>
<linearGradient id="paint0_linear_561_3261" x1="157" y1="80" x2="284.764" y2="187.185" gradientUnits="userSpaceOnUse">
<stop stop-color="#DEFFED"/>
<stop offset="1" stop-color="#6FFFB0" stop-opacity="0"/>
</linearGradient>
<clipPath id="clip0_561_3261">
<rect width="235" height="388" fill="white" transform="translate(-58)"/>
</clipPath>
</defs>
</svg>
