<svg width="332" height="388" viewBox="0 0 332 388" fill="none" xmlns="http://www.w3.org/2000/svg">
<g clip-path="url(#clip0_561_3137)">
<path d="M1 21C1 9.95431 9.9543 1 21 1H123.124C134.17 1 143.124 9.95431 143.124 21V129H21C9.95432 129 1 120.046 1 109V21Z" fill="url(#paint0_linear_561_3137)"/>
<path d="M52.4185 34.6669C52.5325 34.3155 52.7467 33.6958 52.8691 33.3596C52.932 33.178 53.0051 32.964 53.0884 32.7993C53.1105 32.7586 53.119 32.7603 53.1275 32.7637L53.1547 32.7688L53.2108 32.7807L53.4403 32.8265L53.9113 32.9148C56.1385 33.3138 58.398 33.6516 60.6404 33.9369C63.4865 34.2611 66.4379 34.3953 69.2092 33.56C72.4632 32.6092 75.6952 30.2136 76.9669 26.9878C77.0723 26.4869 76.9414 25.93 77.0179 25.4258C77.1607 24.6839 77.2917 23.9182 77.5586 23.2238C77.7388 22.3528 78.5906 21.7925 79.4627 21.9725C80.3349 22.1524 80.896 23.003 80.7157 23.874L80.6647 24.1932C80.2907 26.3392 79.4797 28.3732 78.4035 30.2679C75.3144 35.6805 70.8957 37.7315 64.8959 38.5294C60.5367 39.0829 56.0637 38.509 51.9918 36.8826L51.9578 36.869C51.9459 36.8656 51.934 36.8622 51.9357 36.8146V36.7824C51.9357 36.7756 51.9357 36.7569 51.9391 36.7348C51.9493 36.5871 51.9986 36.3698 52.0309 36.2187C52.0598 36.0591 52.1125 35.8401 52.1516 35.6839C52.2077 35.509 52.3556 34.8197 52.4202 34.6669H52.4185Z" fill="#2C2E49"/>
<path d="M49.0677 44.9131H28.4041C27.0627 44.9131 25.9746 43.8265 25.9746 42.487V27.0557C25.9746 25.7161 27.0627 24.6295 28.4041 24.6295H49.0677C54.6764 24.6295 59.2243 29.1711 59.2243 34.7722C59.2243 40.3732 54.6764 44.9148 49.0677 44.9148V44.9131Z" fill="#2C2E49"/>
<path d="M29.0332 41.8571V27.6838H49.0677C52.9797 27.6838 56.1641 30.8621 56.1641 34.7705C56.1641 38.6788 52.9814 41.8571 49.0677 41.8571H29.0332Z" fill="#464869"/>
<path d="M25.9726 44.9114C34.5069 44.9114 41.4252 38.0026 41.4252 29.4801C41.4252 20.9577 34.5069 14.0488 25.9726 14.0488C17.4384 14.0488 10.52 20.9577 10.52 29.4801C10.52 38.0026 17.4384 44.9114 25.9726 44.9114Z" fill="#2C2E49"/>
<path d="M34.4864 37.9823C39.1885 33.2867 39.1885 25.6736 34.4864 20.978C29.7843 16.2824 22.1608 16.2824 17.4587 20.978C12.7566 25.6736 12.7566 33.2867 17.4587 37.9823C22.1608 42.6779 29.7843 42.6779 34.4864 37.9823Z" fill="#464869"/>
<path d="M25.9728 17.9656C32.3314 17.9656 37.5032 23.1303 37.5032 29.4801C37.5032 35.8299 32.3314 40.9946 25.9728 40.9946C19.6143 40.9946 14.4424 35.8299 14.4424 29.4801C14.4424 23.1303 19.616 17.9656 25.9728 17.9656ZM25.9728 16.947C19.0413 16.947 13.4224 22.5582 13.4224 29.4801C13.4224 36.4021 19.0413 42.0133 25.9728 42.0133C32.9043 42.0133 38.5233 36.4021 38.5233 29.4801C38.5233 22.5582 32.9043 16.947 25.9728 16.947Z" fill="black"/>
<path d="M45.1378 45.1379H30.1309V59.2621H45.1378V45.1379Z" fill="#696A8E"/>
<path d="M49.5517 58.3793H1V75.1517H49.5517V58.3793Z" fill="#464869"/>
<path d="M125.27 54.9624H52.6752C50.8985 54.9624 49.4585 56.4004 49.4585 58.1746V74.9065C49.4585 76.6807 50.8985 78.1187 52.6752 78.1187H66.3426C91.736 78.1187 95.427 87.168 114.7 87.168C127.983 87.168 131.628 77.9693 131.628 74.6705V61.3105C131.628 57.8045 128.782 54.9607 125.27 54.9607V54.9624Z" fill="#2C2E49"/>
<path d="M20.9745 24.307V26.7144L20.2128 27.475L19.9595 27.2221V23.9266L20.9745 24.307ZM19.9595 31.2764V27.981L20.2128 27.728L20.9745 28.4886V30.8961L19.9595 31.2764ZM24.4019 32.1627H20.5953C20.257 32.0778 20.0445 31.8673 19.9612 31.5294L20.9762 31.1491H24.0228L24.4036 32.1627H24.4019ZM24.0211 24.0523H20.9881L19.9731 23.672C20.0581 23.3341 20.2689 23.1236 20.6072 23.0387H24.4019L24.0211 24.0523ZM24.2744 26.7127V24.0523L24.6553 23.0387C24.9936 23.1236 25.2044 23.3341 25.2894 23.672V27.2204L25.0361 27.4733L24.2744 26.7127ZM25.0361 27.7263L25.2894 27.9793V31.5277C25.2044 31.8656 24.9936 32.0778 24.6553 32.161L24.2744 31.1474V28.4869L25.0361 27.7263Z" fill="white"/>
<path d="M27.3211 24.307V26.7144L26.5595 27.475L26.3062 27.2221V23.9266L27.3211 24.307ZM26.3062 31.2764V27.981L26.5595 27.728L27.3211 28.4886V30.8961L26.3062 31.2764ZM30.7486 32.1627H26.942C26.6037 32.0778 26.3912 31.8673 26.3079 31.5294L27.3228 31.1491H30.3695L30.7503 32.1627H30.7486ZM30.3678 24.0523H27.3347L26.3198 23.672C26.4048 23.3341 26.6156 23.1236 26.9539 23.0387H30.7486L30.3678 24.0523ZM30.6211 26.7127V24.0523L31.0019 23.0387C31.3403 23.1236 31.5511 23.3341 31.6361 23.672V27.2204L31.3828 27.4733L30.6211 26.7127ZM31.3828 27.7263L31.6361 27.9793V31.5277C31.5511 31.8656 31.3403 32.0778 31.0019 32.161L30.6211 31.1474V28.4869L31.3828 27.7263Z" fill="white"/>
<path d="M51.5412 37.2187C53.159 37.2187 54.4705 35.909 54.4705 34.2934C54.4705 32.6778 53.159 31.3681 51.5412 31.3681C49.9233 31.3681 48.6118 32.6778 48.6118 34.2934C48.6118 35.909 49.9233 37.2187 51.5412 37.2187Z" fill="#2C2E49"/>
<path d="M51.5411 36.2526C50.4598 36.2526 49.5791 35.3732 49.5791 34.2934C49.5791 33.762 49.7899 33.2628 50.1725 32.891C50.2405 32.8265 50.3476 32.8265 50.4122 32.8944C50.4785 32.9623 50.4768 33.0693 50.4088 33.1338C50.0925 33.4411 49.9174 33.8536 49.9174 34.2934C49.9174 35.1864 50.6451 35.9131 51.5394 35.9131C52.4336 35.9131 53.1613 35.1864 53.1613 34.2934C53.1613 33.8536 52.9862 33.4411 52.67 33.1338C52.602 33.0693 52.602 32.9606 52.6666 32.8944C52.7312 32.8282 52.84 32.8265 52.9063 32.891C53.2888 33.2628 53.4996 33.762 53.4996 34.2934C53.4996 35.3749 52.619 36.2526 51.5377 36.2526H51.5411Z" fill="white"/>
<path d="M51.5411 34.4632C51.4476 34.4632 51.3711 34.3868 51.3711 34.2934V32.1457C51.3711 32.0523 51.4476 31.9759 51.5411 31.9759C51.6346 31.9759 51.7111 32.0523 51.7111 32.1457V34.2934C51.7111 34.3868 51.6346 34.4632 51.5411 34.4632Z" fill="white"/>
<path d="M45.079 44.9131H30.1348V51.5261H45.079V44.9131Z" fill="#2C2E49"/>
<path d="M114.661 44.9131C110.489 44.9131 107.107 48.29 107.107 52.4565V47.0812C107.107 42.9148 103.726 39.5379 99.5534 39.5379C95.3812 39.5379 91.9996 42.9148 91.9996 47.0812C91.9996 42.9148 88.618 39.5379 84.4459 39.5379C80.2737 39.5379 76.8921 42.9148 76.8921 47.0812V31.3375C76.8921 27.1711 73.5106 23.7942 69.3384 23.7942C65.1663 23.7942 61.7847 27.1711 61.7847 31.3375V128.784H122.208V52.4548C122.208 48.2883 118.826 44.9114 114.654 44.9114L114.661 44.9131Z" fill="#FFF3D0"/>
</g>
<path d="M1 21C1 9.95431 9.9543 1 21 1H123.124C134.17 1 143.124 9.95431 143.124 21V129H21C9.95432 129 1 120.046 1 109V21Z" stroke="white" stroke-width="2"/>
<path d="M182.755 146.425L230.335 147.887V135.515L182.755 146.425Z" fill="#ECBC96"/>
<path d="M321.419 322.591L309.194 319.819C308.674 319.701 308.304 319.238 308.304 318.705V313.915C308.304 313.285 308.815 312.774 309.446 312.774H318.609C320.159 312.774 321.417 314.032 321.417 315.582V322.591H321.419Z" fill="#2C2E49"/>
<path d="M253.43 86.2477L237.029 102.149C237.029 102.149 236.995 102.086 236.931 101.965C236.35 100.879 233.3 95.0616 230.07 87.0993L241.053 75.7624L243.647 73.0865C245.106 87.0207 253.43 86.2477 253.43 86.2477Z" fill="#ECBC96"/>
<path d="M243.501 71.7063C244.929 83.1088 240.756 94.3715 228.624 95.8914C221.101 96.8334 217.334 83.7144 216.258 75.1203C215.18 66.5263 220.406 58.7955 227.93 57.8536C235.453 56.9116 242.425 63.1137 243.502 71.7078L243.501 71.7063Z" fill="#FFF3D0"/>
<path d="M220.231 282.875H201.06V302.044H220.231V282.875Z" fill="#E6E7E8"/>
<path d="M223.214 311.662L222.981 305.521C222.981 305.521 222.783 303.456 222.58 301.575C222.452 300.382 221.232 299.629 220.106 300.05C213.088 302.677 204.69 300.071 201.026 298.335C200.544 298.106 199.985 298.106 199.497 298.322C198.557 298.736 197.594 299.106 196.635 299.467C189.308 302.213 182.093 303.101 175.081 305.521C170.475 307.111 168.481 309.436 174.18 312.915C185.73 319.968 210.575 317.142 219.801 315.776C221.82 315.478 223.288 313.706 223.211 311.666L223.214 311.662Z" fill="#2C2E49"/>
<path d="M279.128 236.492L294.741 196.624L223.965 194.526V203.811C206.772 207.253 188.993 210.811 188.993 210.811L188.197 210.97C179.412 212.703 173.933 221.827 176.566 230.393L186.812 290.534C187.234 293.012 189.247 294.909 191.744 295.187L222.292 298.584C224.873 298.87 226.94 296.481 226.281 293.968C223.283 282.535 216.003 255.021 211.296 239.396C221.479 238.403 226.64 237.901 241.136 236.489H279.126L279.128 236.492Z" fill="#2B3990"/>
<path d="M242.014 89.9397C233.832 99.2981 229.18 112.673 228.864 122.282L216.434 199.303C216.012 201.914 218.03 204.283 220.675 204.283H292.628C295.291 204.283 297.314 201.885 296.862 199.26C288.087 148.088 275.059 90.509 259.906 82.8394C252.157 78.9172 245.111 86.3976 242.014 89.9412V89.9397Z" fill="#72FFB1"/>
<path d="M136.141 320.808H134.394V333.298H136.141V320.808Z" fill="#464869"/>
<path d="M124.885 326.296L124.012 327.809L134.83 334.054L135.703 332.541L124.885 326.296Z" fill="#464869"/>
<path d="M134.835 332.539L124.017 338.784L124.89 340.297L135.708 334.052L134.835 332.539Z" fill="#464869"/>
<path d="M136.141 333.296H134.394V345.786H136.141V333.296Z" fill="#464869"/>
<path d="M135.703 332.542L134.83 334.055L145.648 340.3L146.521 338.787L135.703 332.542Z" fill="#464869"/>
<path d="M145.65 326.294L134.833 332.539L135.706 334.052L146.524 327.807L145.65 326.294Z" fill="#464869"/>
<path d="M135.268 351.562C125.195 351.562 117 343.368 117 333.296C117 323.224 125.195 315.031 135.268 315.031C145.341 315.031 153.535 323.224 153.535 333.296C153.535 343.368 145.341 351.562 135.268 351.562ZM135.268 324.203C130.253 324.203 126.173 328.282 126.173 333.296C126.173 338.31 130.253 342.39 135.268 342.39C140.282 342.39 144.362 338.31 144.362 333.296C144.362 328.282 140.282 324.203 135.268 324.203Z" fill="#2C2E49"/>
<path d="M135.267 346.514C127.978 346.514 122.048 340.584 122.048 333.296C122.048 326.008 127.978 320.078 135.267 320.078C142.556 320.078 148.487 326.008 148.487 333.296C148.487 340.584 142.556 346.514 135.267 346.514ZM135.267 321.536C128.781 321.536 123.504 326.812 123.504 333.298C123.504 339.784 128.781 345.06 135.267 345.06C141.754 345.06 147.031 339.784 147.031 333.298C147.031 326.812 141.754 321.536 135.267 321.536Z" fill="#464869"/>
<path d="M135.267 337.199C137.423 337.199 139.171 335.452 139.171 333.296C139.171 331.14 137.423 329.393 135.267 329.393C133.112 329.393 131.364 331.14 131.364 333.296C131.364 335.452 133.112 337.199 135.267 337.199Z" fill="#2C2E49"/>
<path d="M135.268 309.245C129.123 309.245 123.517 311.548 119.266 315.339C118.702 315.842 118.686 316.718 119.221 317.251L134.882 332.91C135.129 333.158 135.466 333.298 135.815 333.298H157.963C158.719 333.298 159.326 332.664 159.284 331.91C158.565 319.273 148.088 309.246 135.269 309.246L135.268 309.245Z" fill="#464869"/>
<path d="M150.504 164.367L132.624 307.492L144.182 308.935L162.062 165.811L150.504 164.367Z" fill="#2C2E49"/>
<path d="M146.32 276.4L137.502 284.01L172.202 324.206L181.02 316.596L146.32 276.4Z" fill="#2C2E49"/>
<path d="M272.866 330.317H164.584C163.581 330.317 162.767 329.504 162.767 328.5V318.137C162.767 317.134 163.581 316.321 164.584 316.321H275.729C276.929 316.321 277.799 317.463 277.481 318.621L274.618 328.984C274.401 329.771 273.683 330.317 272.866 330.317Z" fill="#2C2E49"/>
<path d="M301.621 320.808H299.874V333.298H301.621V320.808Z" fill="#464869"/>
<path d="M290.365 326.296L289.492 327.809L300.31 334.054L301.183 332.541L290.365 326.296Z" fill="#464869"/>
<path d="M300.313 332.536L289.495 338.781L290.368 340.294L301.186 334.049L300.313 332.536Z" fill="#464869"/>
<path d="M301.621 333.296H299.874V345.786H301.621V333.296Z" fill="#464869"/>
<path d="M301.184 332.541L300.311 334.054L311.129 340.299L312.002 338.786L301.184 332.541Z" fill="#464869"/>
<path d="M311.129 326.292L300.312 332.537L301.185 334.05L312.003 327.805L311.129 326.292Z" fill="#464869"/>
<path d="M300.747 351.562C290.674 351.562 282.479 343.368 282.479 333.296C282.479 323.224 290.674 315.031 300.747 315.031C310.82 315.031 319.015 323.224 319.015 333.296C319.015 343.368 310.82 351.562 300.747 351.562ZM300.747 324.203C295.733 324.203 291.653 328.282 291.653 333.296C291.653 338.31 295.733 342.39 300.747 342.39C305.762 342.39 309.842 338.31 309.842 333.296C309.842 328.282 305.762 324.203 300.747 324.203Z" fill="#2C2E49"/>
<path d="M300.747 346.514C293.458 346.514 287.527 340.584 287.527 333.296C287.527 326.008 293.458 320.078 300.747 320.078C308.036 320.078 313.966 326.008 313.966 333.296C313.966 340.584 308.036 346.514 300.747 346.514ZM300.747 321.536C294.26 321.536 288.983 326.812 288.983 333.298C288.983 339.784 294.26 345.06 300.747 345.06C307.234 345.06 312.51 339.784 312.51 333.298C312.51 326.812 307.234 321.536 300.747 321.536Z" fill="#464869"/>
<path d="M300.747 337.199C302.903 337.199 304.651 335.452 304.651 333.296C304.651 331.14 302.903 329.393 300.747 329.393C298.591 329.393 296.843 331.14 296.843 333.296C296.843 335.452 298.591 337.199 300.747 337.199Z" fill="#2C2E49"/>
<path d="M262.721 232.789H257.061V312.828H262.721V232.789Z" fill="#464869"/>
<path d="M264.311 269.068H255.471V316.321H264.311V269.068Z" fill="#2C2E49"/>
<path d="M273.887 228.687C270.719 228.978 266.575 229.355 263.414 229.62C255.506 230.266 247.452 230.99 239.531 231.416C239.023 231.443 237.013 231.526 236.509 231.55C233.458 231.686 231.095 234.267 231.229 237.317C231.589 245.456 248.512 241.82 272.098 248.3C277.425 249.764 282.931 246.632 284.394 241.305C286.31 234.717 280.687 228.004 273.887 228.687Z" fill="#2C2E49"/>
<path d="M266.319 271.373H253.753V277.395H266.319V271.373Z" fill="#515378"/>
<path d="M268.504 276.279L266.317 276.908V271.861L268.504 272.49C269.35 272.733 269.931 273.506 269.931 274.385C269.931 275.265 269.348 276.038 268.504 276.281V276.279Z" fill="#464869"/>
<path d="M267.919 312.531H251.863C251.371 312.531 250.973 312.929 250.973 313.42V315.431C250.973 315.922 251.371 316.321 251.863 316.321H267.919C268.41 316.321 268.808 315.922 268.808 315.431V313.42C268.808 312.929 268.41 312.531 267.919 312.531Z" fill="#2C2E49"/>
<path d="M171.877 309.718L163.948 317.647H187.861L179.931 309.718C177.707 307.495 174.101 307.495 171.877 309.718Z" fill="#2C2E49"/>
<path d="M136.442 300.395L132.378 332.928L138.157 333.65L142.222 301.117L136.442 300.395Z" fill="#515378"/>
<path d="M322.461 333.296C318.936 333.296 315.724 331.181 314.427 327.904C312.272 322.456 306.952 318.593 300.747 318.593C294.543 318.593 288.886 322.574 286.842 328.499L278.445 325.603C281.724 316.099 290.686 309.714 300.746 309.714C313.103 309.714 323.271 319.264 324.254 331.371C324.338 332.411 323.504 333.298 322.46 333.298L322.461 333.296Z" fill="#464869"/>
<path d="M136.844 302.395L136.844 302.397C136.773 302.971 137.18 303.495 137.755 303.567L140.101 303.86C140.676 303.932 141.199 303.524 141.271 302.95L141.271 302.948C141.343 302.374 140.936 301.85 140.361 301.778L138.015 301.485C137.44 301.413 136.916 301.821 136.844 302.395Z" fill="#BDC4D9"/>
<path d="M300.747 337.227C281.898 337.227 270.953 324.155 270.498 323.597L276.577 318.611L276.566 318.599C276.59 318.627 278.902 321.374 283.075 324.061C288.538 327.58 294.485 329.365 300.747 329.365V337.227Z" fill="#2C2E49"/>
<path d="M300.747 334.95C301.661 334.95 302.401 334.21 302.401 333.296C302.401 332.383 301.661 331.642 300.747 331.642C299.834 331.642 299.093 332.383 299.093 333.296C299.093 334.21 299.834 334.95 300.747 334.95Z" fill="#BDC4D9"/>
<path d="M135.268 334.95C136.181 334.95 136.922 334.21 136.922 333.296C136.922 332.383 136.181 331.642 135.268 331.642C134.354 331.642 133.614 332.383 133.614 333.296C133.614 334.21 134.354 334.95 135.268 334.95Z" fill="#BDC4D9"/>
<path d="M147.293 300.172L131.757 298.287L134.632 275.289L137.612 263.96L150.012 265.899L150.102 277.702L147.293 300.172Z" fill="#2C2E49"/>
<path d="M243.735 316.321H169.83V323.319H243.735V316.321Z" fill="#515378"/>
<path d="M155.225 144.198L151.473 174.228L158.697 175.13L162.449 145.1L155.225 144.198Z" fill="#2C2E49"/>
<path d="M158.839 152.15C162.979 152.15 166.336 148.793 166.336 144.653C166.336 140.513 162.979 137.157 158.839 137.157C154.698 137.157 151.341 140.513 151.341 144.653C151.341 148.793 154.698 152.15 158.839 152.15Z" fill="#2C2E49"/>
<path d="M142.126 142.868C142.126 143.669 141.476 144.318 140.675 144.318H135.9C135.284 144.318 134.784 144.818 134.784 145.434V146.771C134.784 147.387 135.284 147.887 135.9 147.887H147.311C148.266 147.887 149.039 147.112 149.039 146.159V143.148C149.039 142.193 148.264 141.42 147.311 141.42H143.574C142.774 141.42 142.124 142.069 142.124 142.87L142.126 142.868Z" fill="#2C2E49"/>
<path d="M158.84 142.979H146.67V146.327H158.84V142.979Z" fill="#2C2E49"/>
<path d="M119.564 286.658V293.698C119.564 294.484 120.237 295.101 121.02 295.034L130.53 294.222C131.224 294.162 131.757 293.581 131.757 292.885V287.469C131.757 286.772 131.224 286.191 130.53 286.133L121.02 285.32C120.237 285.253 119.564 285.871 119.564 286.657V286.658Z" fill="#2C2E49"/>
<path d="M244.331 239.013C244.268 239.013 244.205 238.997 244.147 238.964C239.428 236.217 235.482 232.919 232.417 229.163C229.962 226.153 228.064 222.847 226.776 219.333C224.581 213.34 224.918 208.885 224.934 208.697C224.95 208.497 225.125 208.347 225.328 208.364C225.529 208.38 225.677 208.556 225.661 208.757C225.658 208.801 225.323 213.267 227.475 219.117C229.458 224.513 234.026 232.226 244.516 238.333C244.689 238.434 244.748 238.658 244.647 238.831C244.58 238.948 244.457 239.012 244.332 239.012L244.331 239.013Z" fill="#2C2E49"/>
<path d="M133.695 287.873H131.055V292.482H133.695V287.873Z" fill="#2C2E49"/>
<path d="M263.885 260.313C263.852 260.313 263.818 260.311 263.785 260.307L255.796 259.307C255.357 259.251 255.046 258.851 255.101 258.413C255.156 257.975 255.557 257.663 255.995 257.718L263.984 258.719C264.423 258.774 264.734 259.174 264.679 259.613C264.628 260.017 264.283 260.314 263.885 260.314V260.313Z" fill="#2C2E49"/>
<path d="M263.885 256.858C263.852 256.858 263.818 256.857 263.785 256.852L255.796 255.852C255.357 255.797 255.046 255.396 255.101 254.958C255.156 254.52 255.555 254.208 255.995 254.264L263.984 255.264C264.423 255.319 264.734 255.719 264.679 256.158C264.628 256.562 264.283 256.859 263.885 256.859V256.858Z" fill="#2C2E49"/>
<path d="M263.885 253.405C263.852 253.405 263.818 253.403 263.785 253.399L255.796 252.399C255.357 252.343 255.046 251.943 255.101 251.505C255.156 251.066 255.557 250.755 255.995 250.81L263.984 251.81C264.423 251.866 264.734 252.266 264.679 252.704C264.628 253.109 264.283 253.406 263.885 253.406V253.405Z" fill="#2C2E49"/>
<path d="M263.885 249.95C263.852 249.95 263.818 249.948 263.785 249.944L255.796 248.944C255.357 248.888 255.046 248.488 255.101 248.05C255.156 247.612 255.555 247.3 255.995 247.355L263.984 248.356C264.423 248.411 264.734 248.811 264.679 249.25C264.628 249.654 264.283 249.951 263.885 249.951V249.95Z" fill="#2C2E49"/>
<path d="M140.269 322.933C140.2 322.933 140.129 322.924 140.059 322.905L132.929 320.979C132.502 320.864 132.249 320.425 132.364 319.998C132.479 319.572 132.918 319.318 133.345 319.433L140.475 321.359C140.902 321.474 141.155 321.914 141.04 322.341C140.944 322.697 140.621 322.933 140.267 322.933H140.269Z" fill="#696A8E"/>
<path d="M139.836 326.295C139.768 326.295 139.697 326.286 139.627 326.267L132.496 324.341C132.07 324.226 131.817 323.786 131.932 323.36C132.047 322.933 132.486 322.68 132.913 322.795L140.043 324.721C140.47 324.836 140.723 325.276 140.608 325.702C140.512 326.059 140.189 326.295 139.835 326.295H139.836Z" fill="#696A8E"/>
<path d="M139.404 329.655C139.335 329.655 139.264 329.646 139.194 329.627L132.064 327.701C131.637 327.586 131.384 327.146 131.499 326.72C131.614 326.293 132.054 326.04 132.48 326.155L139.611 328.081C140.037 328.196 140.291 328.636 140.176 329.062C140.079 329.419 139.756 329.655 139.402 329.655H139.404Z" fill="#696A8E"/>
<path d="M140.703 319.573C140.634 319.573 140.563 319.564 140.493 319.545L133.363 317.619C132.936 317.504 132.683 317.065 132.798 316.638C132.913 316.211 133.353 315.958 133.779 316.073L140.909 317.999C141.336 318.114 141.589 318.554 141.474 318.98C141.378 319.337 141.055 319.573 140.701 319.573H140.703Z" fill="#696A8E"/>
<path d="M141.135 316.213C141.066 316.213 140.995 316.204 140.925 316.185L133.795 314.259C133.368 314.144 133.115 313.704 133.23 313.278C133.345 312.851 133.785 312.598 134.211 312.713L141.342 314.639C141.768 314.754 142.022 315.194 141.907 315.62C141.81 315.977 141.487 316.213 141.133 316.213H141.135Z" fill="#696A8E"/>
<path d="M141.567 312.853C141.499 312.853 141.428 312.844 141.358 312.825L134.227 310.899C133.801 310.784 133.547 310.344 133.662 309.918C133.778 309.491 134.217 309.238 134.644 309.353L141.774 311.279C142.201 311.394 142.454 311.834 142.339 312.26C142.243 312.617 141.92 312.853 141.566 312.853H141.567Z" fill="#696A8E"/>
<path d="M268.126 275.253C268.606 275.253 268.995 274.864 268.995 274.384C268.995 273.904 268.606 273.515 268.126 273.515C267.646 273.515 267.256 273.904 267.256 274.384C267.256 274.864 267.646 275.253 268.126 275.253Z" fill="#2C2E49"/>
<path d="M275.774 347.389C268.65 338.61 259.571 325.445 248.022 307.143L270.923 292.695C281.894 310.081 290.36 322.392 296.801 330.331L275.774 347.389Z" fill="#E6E7E8"/>
<path d="M307.27 329.46L299.92 324.473C299.92 324.473 297.346 322.936 294.982 321.562C293.483 320.688 291.561 321.464 291.089 323.134C288.14 333.554 277.919 341.1 272.759 343.877C272.079 344.243 271.601 344.892 271.434 345.646C270.362 350.471 260.221 384.246 266.754 387.609C276.391 392.571 302.829 348.857 309.135 336.947C310.516 334.341 309.709 331.115 307.269 329.46H307.27Z" fill="#2C2E49"/>
<path d="M268.471 384.981C279.361 377.061 299.821 347.691 304.112 331.521" stroke="#515378" stroke-width="1.5"/>
<path d="M261.859 280.196L286.872 216.715L238.118 205.059L228.115 277.853L227.786 280.251C227.293 283.86 228.054 287.657 230.21 290.942L262.581 340.263C263.816 342.144 266.429 342.497 268.118 341.011L293.419 318.761C294.999 317.37 295.103 314.945 293.649 313.425L261.859 280.196Z" fill="#2B3990"/>
<path d="M241.328 91.333L240.941 91.8848L222.994 117.481C213.796 120.274 170.707 133.364 170.707 133.364C162.034 135.981 164.527 148.559 173.565 147.639L233.436 139.724C235.883 139.392 238.23 138.112 239.823 135.979L240.526 135.037L261.997 106.286C262.061 106.2 262.159 106.067 262.221 105.978C271.39 91.7218 251.573 77.8734 241.33 91.3316L241.328 91.333Z" fill="#FFF3D0"/>
<path d="M226.258 113.411L248.42 130.014L265.447 103.394C269.541 96.992 267.477 88.4678 260.907 84.649C255.415 81.4578 248.436 82.573 244.213 87.3177L225.724 108.095C224.312 109.681 224.559 112.138 226.26 113.411H226.258Z" fill="#72FFB1"/>
<path d="M176.126 136.847C178.808 139.435 179.504 143.483 177.263 146.624C175.472 149.134 172.163 150.184 169.192 149.626C165.23 148.881 161.854 145.77 159.581 142.59C158.833 141.543 158.078 140.901 156.726 141.134C154.676 141.487 152.994 142.826 151.27 143.89C150.018 144.663 147.42 146.196 145.948 145.33C144.98 144.761 144.605 143.162 145.467 142.34C148.607 139.344 157.946 129.695 160.251 129.527C162.308 129.377 164.173 130.808 165.959 131.611C168.392 132.708 170.823 133.804 173.256 134.9C174.302 135.372 175.29 136.036 176.129 136.847H176.126Z" fill="#FFF3D0"/>
<path d="M158.838 149.771C161.665 149.771 163.956 147.48 163.956 144.653C163.956 141.827 161.665 139.536 158.838 139.536C156.012 139.536 153.72 141.827 153.72 144.653C153.72 147.48 156.012 149.771 158.838 149.771Z" fill="#515378"/>
<path d="M272.175 229.626C272.136 229.626 272.096 229.62 272.058 229.607C264.156 226.925 259.095 221.422 256.24 217.278C253.15 212.793 251.942 208.997 251.892 208.837C251.832 208.645 251.939 208.441 252.131 208.382C252.322 208.322 252.527 208.428 252.587 208.62C252.598 208.658 253.818 212.487 256.853 216.885C259.644 220.931 264.587 226.303 272.293 228.917C272.484 228.981 272.586 229.188 272.52 229.378C272.469 229.53 272.326 229.626 272.175 229.626Z" fill="#2C2E49"/>
<path d="M259.7 279.881C251.541 279.881 246.565 274.642 246.357 274.417C246.22 274.27 246.229 274.04 246.375 273.903C246.522 273.767 246.752 273.774 246.889 273.921C246.938 273.973 251.867 279.153 259.706 279.153C259.766 279.153 259.826 279.153 259.887 279.153H259.891C260.091 279.153 260.254 279.313 260.255 279.513C260.257 279.714 260.097 279.878 259.896 279.881C259.832 279.881 259.766 279.881 259.703 279.881H259.7Z" fill="#2C2E49"/>
<path d="M253.721 282.423C246.861 282.423 242.981 279.954 242.777 279.82C242.608 279.711 242.562 279.485 242.671 279.316C242.781 279.148 243.006 279.101 243.175 279.21C243.236 279.249 249.412 283.161 259.819 281.065C260.015 281.026 260.208 281.152 260.248 281.35C260.288 281.547 260.161 281.739 259.963 281.78C257.671 282.241 255.586 282.425 253.721 282.425V282.423Z" fill="#2C2E49"/>
<path d="M210.017 238.068C209.953 238.068 209.888 238.051 209.83 238.016C209.675 237.921 206.038 235.633 206.038 228.639C206.038 228.438 206.201 228.275 206.402 228.275C206.603 228.275 206.766 228.438 206.766 228.639C206.766 235.194 210.175 237.374 210.21 237.394C210.38 237.499 210.434 237.723 210.329 237.895C210.261 238.007 210.141 238.07 210.019 238.07L210.017 238.068Z" fill="#2C2E49"/>
<path d="M210.129 238.351C210.1 238.351 210.07 238.348 210.041 238.339C205.703 237.252 202.272 233.573 202.128 233.417C201.991 233.27 202.002 233.04 202.149 232.903C202.297 232.766 202.527 232.776 202.663 232.923C202.696 232.96 206.093 236.599 210.217 237.633C210.412 237.683 210.53 237.879 210.482 238.074C210.441 238.239 210.292 238.349 210.129 238.349V238.351Z" fill="#2C2E49"/>
<path d="M231.841 124.058C231.717 124.058 231.596 123.996 231.528 123.881C231.501 123.836 228.787 119.382 223.94 118.098C223.746 118.047 223.63 117.848 223.681 117.652C223.732 117.459 223.933 117.342 224.126 117.393C229.266 118.753 232.037 123.313 232.152 123.507C232.256 123.68 232.199 123.903 232.027 124.006C231.969 124.041 231.905 124.057 231.841 124.057V124.058Z" fill="#2C2E49"/>
<path d="M248.686 131.412C248.676 131.417 248.67 131.422 248.674 131.42C248.682 131.418 248.686 131.415 248.686 131.412Z" fill="#2C2E49"/>
<path d="M262.402 105.663C262.227 105.563 262.005 105.622 261.905 105.797L249.756 126.957C248.987 128.295 247.221 128.659 245.986 127.734L240.547 123.659C240.376 123.531 240.129 123.576 240.015 123.764C239.916 123.927 239.973 124.141 240.126 124.255L245.566 128.33C247.141 129.511 249.395 129.046 250.375 127.338L262.535 106.16C262.635 105.985 262.574 105.762 262.401 105.663H262.402Z" fill="#2C2E49"/>
<path d="M144.401 276.907C144.385 276.907 144.371 276.907 144.355 276.904L136.352 275.876C136.153 275.85 136.012 275.668 136.038 275.468C136.064 275.269 136.245 275.129 136.445 275.154L144.448 276.182C144.647 276.208 144.789 276.39 144.762 276.59C144.739 276.773 144.582 276.907 144.401 276.907Z" fill="#464869"/>
<path d="M228.786 97.1769C228.483 97.2148 228.208 97.0007 228.17 96.6979C228.132 96.3951 228.346 96.1199 228.649 96.0821C233.971 95.4153 237.577 91.8964 239.371 85.6216C240.734 80.8507 240.481 76.2064 240.478 76.1598C240.46 75.8555 240.691 75.5964 240.996 75.576C241.301 75.5585 241.563 75.79 241.58 76.0943C241.592 76.2908 241.85 80.9497 240.44 85.8982C239.604 88.8333 238.352 91.25 236.718 93.083C234.654 95.3978 231.986 96.7765 228.786 97.1769Z" fill="#2C2E49"/>
<path d="M230.331 95.6826L227.577 96.0275C226.961 96.1046 226.524 96.6662 226.602 97.2817C226.679 97.8972 227.241 98.3336 227.857 98.2565L230.61 97.9116C231.226 97.8344 231.663 97.2729 231.586 96.6574C231.509 96.0419 230.947 95.6054 230.331 95.6826Z" fill="#2C2E49"/>
<path d="M212.069 71.8519C212.101 73.2699 213.272 74.3982 214.691 74.3822C220.346 74.3167 232.079 73.8537 234.831 73.8319C237.921 73.8071 235.61 84.8252 246.413 78.8983C250.236 76.8004 249.174 62.5342 242.382 57.0514C232.634 49.1809 211.629 52.0941 212.069 71.8533V71.8519Z" fill="#2C2E49"/>
<path d="M241.893 81.0006C241.023 81.1098 240.255 81.037 239.586 80.7866C237.706 80.0805 236.985 78.1092 236.405 76.5252C235.883 75.0956 235.516 74.2279 234.834 74.2322C233.656 74.2424 230.807 74.3327 227.509 74.439C223.016 74.5831 217.922 74.7462 214.696 74.784C213.062 74.8029 211.703 73.4926 211.667 71.8621C211.663 71.6408 211.837 71.4573 212.06 71.4515C212.282 71.4471 212.465 71.6218 212.471 71.8446C212.497 73.037 213.492 73.9949 214.687 73.9818C217.906 73.944 222.995 73.7809 227.484 73.6382C230.788 73.532 233.64 73.4417 234.829 73.4315C236.126 73.4213 236.628 74.7957 237.161 76.2515C237.712 77.7555 238.335 79.4618 239.869 80.0368C241.302 80.574 243.438 80.0732 246.219 78.5475C246.413 78.4412 246.658 78.5125 246.764 78.7062C246.87 78.8998 246.799 79.1444 246.605 79.2507C244.775 80.2552 243.214 80.8361 241.893 81.0021V81.0006Z" fill="#646898"/>
<path d="M331.502 351.237L329.034 344.151L321.947 346.617L325.404 348.289C321.528 354.92 315.889 359.153 308.633 360.872C304.766 361.789 301.398 361.722 299.635 361.584C298.888 361.526 298.218 362.045 298.088 362.785C297.94 363.631 298.55 364.423 299.406 364.491C301.206 364.635 304.378 364.701 308.119 363.963C308.468 363.894 308.824 363.817 309.183 363.734C314.843 362.417 322.656 358.883 328.032 349.561L331.5 351.238L331.502 351.237Z" fill="#296AEB"/>
<circle cx="96" cy="180" r="30" fill="#72FFB1"/>
<path d="M95.5152 198C85.8621 198 78 190.004 78 180.187C78 175.355 79.882 170.817 83.297 167.436C83.9041 166.85 84.8604 166.85 85.4371 167.467C86.029 168.084 86.0139 169.057 85.4067 169.644C82.5837 172.438 81.0204 176.189 81.0204 180.187C81.0204 188.306 87.5165 194.913 95.5 194.913C103.484 194.913 109.98 188.306 109.98 180.187C109.98 176.189 108.416 172.438 105.593 169.644C104.986 169.057 104.986 168.069 105.563 167.467C106.14 166.865 107.111 166.85 107.703 167.436C111.118 170.817 113 175.355 113 180.187C113 190.019 105.138 198 95.4848 198H95.5152Z" fill="white"/>
<path d="M95.5 183C94.675 183 94 182.294 94 181.43V161.57C94 160.706 94.675 160 95.5 160C96.325 160 97 160.706 97 161.57V181.43C97 182.294 96.325 183 95.5 183Z" fill="white"/>
<defs>
<linearGradient id="paint0_linear_561_3137" x1="139.5" y1="129" x2="40.1299" y2="53.487" gradientUnits="userSpaceOnUse">
<stop stop-color="#DEFFED"/>
<stop offset="1" stop-color="#6FFFB0" stop-opacity="0"/>
</linearGradient>
<clipPath id="clip0_561_3137">
<path d="M1 21C1 9.95431 9.9543 1 21 1H123.124C134.17 1 143.124 9.95431 143.124 21V129H21C9.95432 129 1 120.046 1 109V21Z" fill="white"/>
</clipPath>
</defs>
</svg>
