<svg width="329" height="237" viewBox="0 0 329 237" fill="none" xmlns="http://www.w3.org/2000/svg">
<path d="M172.398 4.92312C174.745 9.71055 180.774 11.3233 185.198 8.35164C191.266 4.27491 199.373 8.95299 198.877 16.2513C198.518 21.5698 202.93 25.9823 208.249 25.6231C215.543 25.1272 220.221 33.2338 216.148 39.302C213.177 43.7263 214.793 49.7554 219.577 52.1023C226.141 55.32 226.141 64.68 219.577 67.8977C214.789 70.2445 213.177 76.2737 216.148 80.698C220.225 86.7701 215.547 94.8728 208.249 94.3769C202.93 94.0177 198.518 98.4302 198.877 103.749C199.373 111.043 191.266 115.721 185.198 111.648C180.774 108.677 174.745 110.293 172.398 115.077C169.18 121.641 159.82 121.641 156.602 115.077C154.255 110.289 148.226 108.677 143.802 111.648C137.734 115.725 129.627 111.047 130.123 103.749C130.482 98.4302 126.07 94.0177 120.751 94.3769C113.457 94.8728 108.779 86.7662 112.852 80.698C115.823 76.2737 114.207 70.2445 109.423 67.8977C102.859 64.68 102.859 55.32 109.423 52.1023C114.211 49.7554 115.823 43.7263 112.852 39.302C108.775 33.2299 113.453 25.1272 120.751 25.6231C126.07 25.9823 130.482 21.5698 130.123 16.2513C129.627 8.9569 137.734 4.27881 143.802 8.35164C148.226 11.3233 154.255 9.70664 156.602 4.92312C159.82 -1.64104 169.18 -1.64104 172.398 4.92312Z" fill="white"/>
<path fill-rule="evenodd" clip-rule="evenodd" d="M191.329 48.5785L158.5 81.4069L137.672 60.5785L143.329 54.9216L158.5 70.0932L185.672 42.9216L191.329 48.5785Z" fill="#296AEB"/>
<path d="M54.324 177V165.3L45.396 150.18H51.768L58.248 161.556H55.98L62.424 150.18H68.796L59.904 165.264V177H54.324ZM77.6891 177.432C75.7451 177.432 73.9691 176.988 72.3611 176.1C70.7771 175.212 69.5051 174 68.5451 172.464C67.6091 170.904 67.1411 169.14 67.1411 167.172C67.1411 165.18 67.6091 163.416 68.5451 161.88C69.5051 160.344 70.7771 159.132 72.3611 158.244C73.9691 157.356 75.7451 156.912 77.6891 156.912C79.6331 156.912 81.3971 157.356 82.9811 158.244C84.5651 159.132 85.8251 160.344 86.7611 161.88C87.7211 163.416 88.2011 165.18 88.2011 167.172C88.2011 169.14 87.7211 170.904 86.7611 172.464C85.8251 174 84.5651 175.212 82.9811 176.1C81.3971 176.988 79.6331 177.432 77.6891 177.432ZM77.6891 172.572C78.6731 172.572 79.5251 172.344 80.2451 171.888C80.9891 171.432 81.5651 170.796 81.9731 169.98C82.4051 169.164 82.6211 168.228 82.6211 167.172C82.6211 166.116 82.4051 165.192 81.9731 164.4C81.5651 163.584 80.9891 162.948 80.2451 162.492C79.5251 162.012 78.6731 161.772 77.6891 161.772C76.7051 161.772 75.8411 162.012 75.0971 162.492C74.3531 162.948 73.7651 163.584 73.3331 164.4C72.9251 165.192 72.7211 166.116 72.7211 167.172C72.7211 168.228 72.9251 169.164 73.3331 169.98C73.7651 170.796 74.3531 171.432 75.0971 171.888C75.8411 172.344 76.7051 172.572 77.6891 172.572ZM98.4383 177.432C96.8543 177.432 95.4983 177.096 94.3703 176.424C93.2663 175.728 92.4263 174.768 91.8503 173.544C91.2743 172.32 90.9863 170.892 90.9863 169.26V157.344H96.3863V168.828C96.3863 169.572 96.5303 170.232 96.8183 170.808C97.1303 171.36 97.5623 171.792 98.1143 172.104C98.6663 172.416 99.2903 172.572 99.9863 172.572C100.706 172.572 101.33 172.416 101.858 172.104C102.41 171.792 102.83 171.36 103.118 170.808C103.43 170.232 103.586 169.572 103.586 168.828V157.344H108.986V177H103.946V173.112L104.234 173.976C103.778 175.152 103.034 176.028 102.002 176.604C100.994 177.156 99.8063 177.432 98.4383 177.432ZM114.913 161.16V158.46C115.753 158.268 116.437 157.92 116.965 157.416C117.517 156.888 117.877 156.276 118.045 155.58H115.633V150.18H121.033V153.312C121.033 155.424 120.517 157.164 119.485 158.532C118.453 159.876 116.929 160.752 114.913 161.16ZM126.82 177V157.344H131.86V162.06L131.5 161.376C131.932 159.72 132.64 158.604 133.624 158.028C134.632 157.428 135.82 157.128 137.188 157.128H138.34V161.808H136.648C135.328 161.808 134.26 162.216 133.444 163.032C132.628 163.824 132.22 164.952 132.22 166.416V177H126.82ZM150.175 177.432C148.087 177.432 146.275 176.976 144.739 176.064C143.203 175.128 142.015 173.88 141.175 172.32C140.335 170.76 139.915 169.032 139.915 167.136C139.915 165.168 140.347 163.416 141.211 161.88C142.099 160.344 143.287 159.132 144.775 158.244C146.263 157.356 147.943 156.912 149.815 156.912C151.375 156.912 152.755 157.164 153.955 157.668C155.155 158.148 156.163 158.832 156.979 159.72C157.819 160.608 158.455 161.64 158.887 162.816C159.319 163.968 159.535 165.228 159.535 166.596C159.535 166.98 159.511 167.364 159.463 167.748C159.439 168.108 159.379 168.42 159.283 168.684H144.559V164.724H156.223L153.667 166.596C153.907 165.564 153.895 164.652 153.631 163.86C153.367 163.044 152.899 162.408 152.227 161.952C151.579 161.472 150.775 161.232 149.815 161.232C148.879 161.232 148.075 161.46 147.403 161.916C146.731 162.372 146.227 163.044 145.891 163.932C145.555 164.82 145.423 165.9 145.495 167.172C145.399 168.276 145.531 169.248 145.891 170.088C146.251 170.928 146.803 171.588 147.547 172.068C148.291 172.524 149.191 172.752 150.247 172.752C151.207 172.752 152.023 172.56 152.695 172.176C153.391 171.792 153.931 171.264 154.315 170.592L158.635 172.644C158.251 173.604 157.639 174.444 156.799 175.164C155.983 175.884 155.011 176.448 153.883 176.856C152.755 177.24 151.519 177.432 150.175 177.432ZM175.267 177.432C173.851 177.432 172.627 177.204 171.595 176.748C170.563 176.292 169.771 175.644 169.219 174.804C168.667 173.94 168.391 172.92 168.391 171.744C168.391 170.64 168.643 169.668 169.147 168.828C169.651 167.964 170.419 167.244 171.451 166.668C172.507 166.092 173.815 165.684 175.375 165.444L181.387 164.472V168.432L176.347 169.332C175.579 169.476 174.991 169.728 174.583 170.088C174.175 170.424 173.971 170.916 173.971 171.564C173.971 172.164 174.199 172.632 174.655 172.968C175.111 173.304 175.675 173.472 176.347 173.472C177.235 173.472 178.015 173.28 178.687 172.896C179.359 172.512 179.875 171.996 180.235 171.348C180.619 170.676 180.811 169.944 180.811 169.152V164.04C180.811 163.296 180.511 162.672 179.911 162.168C179.335 161.664 178.543 161.412 177.535 161.412C176.575 161.412 175.723 161.676 174.979 162.204C174.259 162.732 173.731 163.428 173.395 164.292L169.075 162.24C169.459 161.136 170.071 160.188 170.911 159.396C171.751 158.604 172.759 157.992 173.935 157.56C175.111 157.128 176.395 156.912 177.787 156.912C179.443 156.912 180.907 157.212 182.179 157.812C183.451 158.412 184.435 159.252 185.131 160.332C185.851 161.388 186.211 162.624 186.211 164.04V177H181.171V173.832L182.395 173.616C181.819 174.48 181.183 175.2 180.487 175.776C179.791 176.328 179.011 176.736 178.147 177C177.283 177.288 176.323 177.432 175.267 177.432ZM190.171 177V149.748H195.571V177H190.171ZM199.523 177V149.748H204.923V177H199.523ZM223.047 177.432C220.887 177.432 219.003 176.928 217.395 175.92C215.811 174.888 214.731 173.508 214.155 171.78L218.115 169.908C218.619 170.964 219.303 171.792 220.167 172.392C221.031 172.992 221.991 173.292 223.047 173.292C223.815 173.292 224.403 173.136 224.811 172.824C225.219 172.512 225.423 172.08 225.423 171.528C225.423 171.24 225.351 171 225.207 170.808C225.063 170.592 224.847 170.4 224.559 170.232C224.271 170.064 223.911 169.92 223.479 169.8L220.131 168.864C218.523 168.408 217.287 167.676 216.423 166.668C215.559 165.636 215.127 164.424 215.127 163.032C215.127 161.808 215.439 160.74 216.063 159.828C216.687 158.916 217.563 158.208 218.691 157.704C219.819 157.176 221.115 156.912 222.579 156.912C224.499 156.912 226.179 157.368 227.619 158.28C229.083 159.168 230.115 160.428 230.715 162.06L226.719 163.932C226.431 163.116 225.903 162.468 225.135 161.988C224.391 161.484 223.539 161.232 222.579 161.232C221.883 161.232 221.331 161.376 220.923 161.664C220.539 161.952 220.347 162.348 220.347 162.852C220.347 163.116 220.419 163.356 220.563 163.572C220.707 163.788 220.935 163.98 221.247 164.148C221.583 164.316 221.991 164.472 222.471 164.616L225.603 165.552C227.235 166.032 228.483 166.764 229.347 167.748C230.211 168.708 230.643 169.896 230.643 171.312C230.643 172.536 230.319 173.604 229.671 174.516C229.047 175.428 228.171 176.148 227.043 176.676C225.915 177.18 224.583 177.432 223.047 177.432ZM243.339 177.432C241.251 177.432 239.439 176.976 237.903 176.064C236.367 175.128 235.179 173.88 234.339 172.32C233.499 170.76 233.079 169.032 233.079 167.136C233.079 165.168 233.511 163.416 234.375 161.88C235.263 160.344 236.451 159.132 237.939 158.244C239.427 157.356 241.107 156.912 242.979 156.912C244.539 156.912 245.919 157.164 247.119 157.668C248.319 158.148 249.327 158.832 250.143 159.72C250.983 160.608 251.619 161.64 252.051 162.816C252.483 163.968 252.699 165.228 252.699 166.596C252.699 166.98 252.675 167.364 252.627 167.748C252.603 168.108 252.543 168.42 252.447 168.684H237.723V164.724H249.387L246.831 166.596C247.071 165.564 247.059 164.652 246.795 163.86C246.531 163.044 246.063 162.408 245.391 161.952C244.743 161.472 243.939 161.232 242.979 161.232C242.043 161.232 241.239 161.46 240.567 161.916C239.895 162.372 239.391 163.044 239.055 163.932C238.719 164.82 238.587 165.9 238.659 167.172C238.563 168.276 238.695 169.248 239.055 170.088C239.415 170.928 239.967 171.588 240.711 172.068C241.455 172.524 242.355 172.752 243.411 172.752C244.371 172.752 245.187 172.56 245.859 172.176C246.555 171.792 247.095 171.264 247.479 170.592L251.799 172.644C251.415 173.604 250.803 174.444 249.963 175.164C249.147 175.884 248.175 176.448 247.047 176.856C245.919 177.24 244.683 177.432 243.339 177.432ZM265.346 177.216C262.97 177.216 261.122 176.58 259.802 175.308C258.506 174.012 257.858 172.212 257.858 169.908V162.024H254.546V157.344H254.726C255.734 157.344 256.502 157.092 257.03 156.588C257.582 156.084 257.858 155.328 257.858 154.32V152.88H263.258V157.344H267.866V162.024H263.258V169.548C263.258 170.22 263.378 170.784 263.618 171.24C263.858 171.672 264.23 171.996 264.734 172.212C265.238 172.428 265.862 172.536 266.606 172.536C266.774 172.536 266.966 172.524 267.182 172.5C267.398 172.476 267.626 172.452 267.866 172.428V177C267.506 177.048 267.098 177.096 266.642 177.144C266.186 177.192 265.754 177.216 265.346 177.216ZM273.911 168.72L273.551 150.18H278.951L278.591 168.72H273.911ZM273.551 177V171.6H278.951V177H273.551Z" fill="#2C2E49"/>
<path d="M33.4898 214V202.08H37.8258C38.6258 202.08 39.3298 202.229 39.9378 202.528C40.5565 202.816 41.0365 203.243 41.3778 203.808C41.7191 204.363 41.8898 205.029 41.8898 205.808C41.8898 206.576 41.7138 207.237 41.3618 207.792C41.0205 208.347 40.5458 208.773 39.9378 209.072C39.3298 209.371 38.6258 209.52 37.8258 209.52H35.3778V214H33.4898ZM35.3778 207.84H37.8738C38.3005 207.84 38.6738 207.755 38.9938 207.584C39.3138 207.413 39.5645 207.179 39.7458 206.88C39.9271 206.571 40.0178 206.208 40.0178 205.792C40.0178 205.376 39.9271 205.019 39.7458 204.72C39.5645 204.411 39.3138 204.176 38.9938 204.016C38.6738 203.845 38.3005 203.76 37.8738 203.76H35.3778V207.84ZM43.6576 214V201.888H45.4656V214H43.6576ZM51.6434 214.192C50.7794 214.192 50.0114 213.995 49.3394 213.6C48.6781 213.195 48.1608 212.651 47.7874 211.968C47.4141 211.275 47.2274 210.501 47.2274 209.648C47.2274 208.773 47.4141 208 47.7874 207.328C48.1714 206.656 48.6834 206.128 49.3234 205.744C49.9634 205.349 50.6888 205.152 51.4994 205.152C52.1501 205.152 52.7314 205.264 53.2434 205.488C53.7554 205.712 54.1874 206.021 54.5394 206.416C54.8914 206.8 55.1581 207.243 55.3394 207.744C55.5314 208.245 55.6274 208.779 55.6274 209.344C55.6274 209.483 55.6221 209.627 55.6114 209.776C55.6008 209.925 55.5794 210.064 55.5474 210.192H48.6514V208.752H54.5234L53.6594 209.408C53.7661 208.885 53.7288 208.421 53.5474 208.016C53.3768 207.6 53.1101 207.275 52.7474 207.04C52.3954 206.795 51.9794 206.672 51.4994 206.672C51.0194 206.672 50.5928 206.795 50.2194 207.04C49.8461 207.275 49.5581 207.616 49.3554 208.064C49.1528 208.501 49.0728 209.035 49.1154 209.664C49.0621 210.251 49.1421 210.763 49.3554 211.2C49.5794 211.637 49.8888 211.979 50.2834 212.224C50.6888 212.469 51.1474 212.592 51.6594 212.592C52.1821 212.592 52.6248 212.475 52.9874 212.24C53.3608 212.005 53.6541 211.701 53.8674 211.328L55.3394 212.048C55.1688 212.453 54.9021 212.821 54.5394 213.152C54.1874 213.472 53.7608 213.728 53.2594 213.92C52.7688 214.101 52.2301 214.192 51.6434 214.192ZM59.9058 214.192C59.3191 214.192 58.8018 214.091 58.3538 213.888C57.9165 213.675 57.5751 213.387 57.3298 213.024C57.0845 212.651 56.9618 212.213 56.9618 211.712C56.9618 211.243 57.0631 210.821 57.2658 210.448C57.4791 210.075 57.8045 209.76 58.2418 209.504C58.6791 209.248 59.2285 209.067 59.8898 208.96L62.8978 208.464V209.888L60.2418 210.352C59.7618 210.437 59.4098 210.592 59.1858 210.816C58.9618 211.029 58.8498 211.307 58.8498 211.648C58.8498 211.979 58.9725 212.251 59.2178 212.464C59.4738 212.667 59.7991 212.768 60.1938 212.768C60.6845 212.768 61.1111 212.661 61.4738 212.448C61.8471 212.235 62.1351 211.952 62.3378 211.6C62.5405 211.237 62.6418 210.837 62.6418 210.4V208.176C62.6418 207.749 62.4818 207.403 62.1618 207.136C61.8525 206.859 61.4365 206.72 60.9138 206.72C60.4338 206.72 60.0125 206.848 59.6498 207.104C59.2978 207.349 59.0365 207.669 58.8658 208.064L57.3618 207.312C57.5218 206.885 57.7831 206.512 58.1458 206.192C58.5085 205.861 58.9298 205.605 59.4098 205.424C59.9005 205.243 60.4178 205.152 60.9618 205.152C61.6445 205.152 62.2471 205.28 62.7698 205.536C63.3031 205.792 63.7138 206.149 64.0018 206.608C64.3005 207.056 64.4498 207.579 64.4498 208.176V214H62.7218V212.432L63.0898 212.48C62.8871 212.832 62.6258 213.136 62.3058 213.392C61.9965 213.648 61.6391 213.845 61.2338 213.984C60.8391 214.123 60.3965 214.192 59.9058 214.192ZM69.7638 214.192C68.8785 214.192 68.0998 213.973 67.4278 213.536C66.7665 213.099 66.3025 212.512 66.0358 211.776L67.4278 211.12C67.6625 211.611 67.9825 212 68.3878 212.288C68.8038 212.576 69.2625 212.72 69.7638 212.72C70.1905 212.72 70.5371 212.624 70.8038 212.432C71.0705 212.24 71.2038 211.979 71.2038 211.648C71.2038 211.435 71.1451 211.264 71.0278 211.136C70.9105 210.997 70.7611 210.885 70.5798 210.8C70.4091 210.715 70.2331 210.651 70.0518 210.608L68.6918 210.224C67.9451 210.011 67.3851 209.691 67.0118 209.264C66.6491 208.827 66.4678 208.32 66.4678 207.744C66.4678 207.221 66.6011 206.768 66.8678 206.384C67.1345 205.989 67.5025 205.685 67.9718 205.472C68.4411 205.259 68.9691 205.152 69.5558 205.152C70.3451 205.152 71.0491 205.349 71.6678 205.744C72.2865 206.128 72.7238 206.667 72.9798 207.36L71.5878 208.016C71.4171 207.6 71.1451 207.269 70.7718 207.024C70.4091 206.779 69.9985 206.656 69.5398 206.656C69.1451 206.656 68.8305 206.752 68.5958 206.944C68.3611 207.125 68.2438 207.365 68.2438 207.664C68.2438 207.867 68.2971 208.037 68.4038 208.176C68.5105 208.304 68.6491 208.411 68.8198 208.496C68.9905 208.571 69.1665 208.635 69.3478 208.688L70.7558 209.104C71.4705 209.307 72.0198 209.627 72.4038 210.064C72.7878 210.491 72.9798 211.003 72.9798 211.6C72.9798 212.112 72.8411 212.565 72.5638 212.96C72.2971 213.344 71.9238 213.648 71.4438 213.872C70.9638 214.085 70.4038 214.192 69.7638 214.192ZM78.8153 214.192C77.9513 214.192 77.1833 213.995 76.5113 213.6C75.85 213.195 75.3326 212.651 74.9593 211.968C74.586 211.275 74.3993 210.501 74.3993 209.648C74.3993 208.773 74.586 208 74.9593 207.328C75.3433 206.656 75.8553 206.128 76.4953 205.744C77.1353 205.349 77.8606 205.152 78.6713 205.152C79.322 205.152 79.9033 205.264 80.4153 205.488C80.9273 205.712 81.3593 206.021 81.7113 206.416C82.0633 206.8 82.33 207.243 82.5113 207.744C82.7033 208.245 82.7993 208.779 82.7993 209.344C82.7993 209.483 82.794 209.627 82.7833 209.776C82.7726 209.925 82.7513 210.064 82.7193 210.192H75.8233V208.752H81.6953L80.8313 209.408C80.938 208.885 80.9006 208.421 80.7193 208.016C80.5486 207.6 80.282 207.275 79.9193 207.04C79.5673 206.795 79.1513 206.672 78.6713 206.672C78.1913 206.672 77.7646 206.795 77.3913 207.04C77.018 207.275 76.73 207.616 76.5273 208.064C76.3246 208.501 76.2446 209.035 76.2873 209.664C76.234 210.251 76.314 210.763 76.5273 211.2C76.7513 211.637 77.0606 211.979 77.4553 212.224C77.8606 212.469 78.3193 212.592 78.8313 212.592C79.354 212.592 79.7966 212.475 80.1593 212.24C80.5326 212.005 80.826 211.701 81.0393 211.328L82.5113 212.048C82.3406 212.453 82.074 212.821 81.7113 213.152C81.3593 213.472 80.9326 213.728 80.4313 213.92C79.9406 214.101 79.402 214.192 78.8153 214.192ZM91.4727 214.192C90.6087 214.192 89.8407 213.995 89.1687 213.6C88.5074 213.195 87.9794 212.651 87.5847 211.968C87.2007 211.285 87.0087 210.512 87.0087 209.648C87.0087 208.795 87.2007 208.027 87.5847 207.344C87.9687 206.661 88.4967 206.128 89.1687 205.744C89.8407 205.349 90.6087 205.152 91.4727 205.152C92.0594 205.152 92.6087 205.259 93.1207 205.472C93.6327 205.675 94.0754 205.957 94.4487 206.32C94.8327 206.683 95.1154 207.104 95.2967 207.584L93.7127 208.32C93.5314 207.872 93.238 207.515 92.8327 207.248C92.438 206.971 91.9847 206.832 91.4727 206.832C90.982 206.832 90.5394 206.955 90.1447 207.2C89.7607 207.435 89.4567 207.771 89.2327 208.208C89.0087 208.635 88.8967 209.12 88.8967 209.664C88.8967 210.208 89.0087 210.699 89.2327 211.136C89.4567 211.563 89.7607 211.899 90.1447 212.144C90.5394 212.389 90.982 212.512 91.4727 212.512C91.9954 212.512 92.4487 212.379 92.8327 212.112C93.2274 211.835 93.5207 211.467 93.7127 211.008L95.2967 211.76C95.126 212.219 94.8487 212.635 94.4647 213.008C94.0914 213.371 93.6487 213.659 93.1367 213.872C92.6247 214.085 92.07 214.192 91.4727 214.192ZM101.24 214.192C100.408 214.192 99.6451 213.995 98.9518 213.6C98.2691 213.205 97.7251 212.667 97.3198 211.984C96.9145 211.301 96.7118 210.528 96.7118 209.664C96.7118 208.789 96.9145 208.016 97.3198 207.344C97.7251 206.661 98.2691 206.128 98.9518 205.744C99.6345 205.349 100.397 205.152 101.24 205.152C102.093 205.152 102.856 205.349 103.528 205.744C104.21 206.128 104.749 206.661 105.144 207.344C105.549 208.016 105.752 208.789 105.752 209.664C105.752 210.539 105.549 211.317 105.144 212C104.738 212.683 104.194 213.221 103.512 213.616C102.829 214 102.072 214.192 101.24 214.192ZM101.24 212.512C101.752 212.512 102.205 212.389 102.6 212.144C102.994 211.899 103.304 211.563 103.528 211.136C103.762 210.699 103.88 210.208 103.88 209.664C103.88 209.12 103.762 208.635 103.528 208.208C103.304 207.781 102.994 207.445 102.6 207.2C102.205 206.955 101.752 206.832 101.24 206.832C100.738 206.832 100.285 206.955 99.8798 207.2C99.4851 207.445 99.1705 207.781 98.9358 208.208C98.7118 208.635 98.5998 209.12 98.5998 209.664C98.5998 210.208 98.7118 210.699 98.9358 211.136C99.1705 211.563 99.4851 211.899 99.8798 212.144C100.285 212.389 100.738 212.512 101.24 212.512ZM107.517 214V205.344H109.245V207.04L109.037 206.816C109.25 206.272 109.592 205.861 110.061 205.584C110.53 205.296 111.074 205.152 111.693 205.152C112.333 205.152 112.898 205.291 113.389 205.568C113.88 205.845 114.264 206.229 114.541 206.72C114.818 207.211 114.957 207.776 114.957 208.416V214H113.165V208.896C113.165 208.459 113.085 208.091 112.925 207.792C112.765 207.483 112.536 207.248 112.237 207.088C111.949 206.917 111.618 206.832 111.245 206.832C110.872 206.832 110.536 206.917 110.237 207.088C109.949 207.248 109.725 207.483 109.565 207.792C109.405 208.101 109.325 208.469 109.325 208.896V214H107.517ZM120.636 214.096C119.729 214.096 119.025 213.84 118.524 213.328C118.023 212.816 117.772 212.096 117.772 211.168V206.976H116.252V205.344H116.492C116.897 205.344 117.212 205.227 117.436 204.992C117.66 204.757 117.772 204.437 117.772 204.032V203.36H119.58V205.344H121.548V206.976H119.58V211.088C119.58 211.387 119.628 211.643 119.724 211.856C119.82 212.059 119.975 212.219 120.188 212.336C120.401 212.443 120.679 212.496 121.02 212.496C121.105 212.496 121.201 212.491 121.308 212.48C121.415 212.469 121.516 212.459 121.612 212.448V214C121.463 214.021 121.297 214.043 121.116 214.064C120.935 214.085 120.775 214.096 120.636 214.096ZM123.376 214V205.344H125.184V214H123.376ZM123.376 204.16V202.08H125.184V204.16H123.376ZM127.298 214V205.344H129.026V207.04L128.818 206.816C129.032 206.272 129.373 205.861 129.842 205.584C130.312 205.296 130.856 205.152 131.474 205.152C132.114 205.152 132.68 205.291 133.17 205.568C133.661 205.845 134.045 206.229 134.322 206.72C134.6 207.211 134.738 207.776 134.738 208.416V214H132.946V208.896C132.946 208.459 132.866 208.091 132.706 207.792C132.546 207.483 132.317 207.248 132.018 207.088C131.73 206.917 131.4 206.832 131.026 206.832C130.653 206.832 130.317 206.917 130.018 207.088C129.73 207.248 129.506 207.483 129.346 207.792C129.186 208.101 129.106 208.469 129.106 208.896V214H127.298ZM139.761 214.192C139.111 214.192 138.54 214.048 138.049 213.76C137.559 213.461 137.175 213.051 136.897 212.528C136.631 211.995 136.497 211.381 136.497 210.688V205.344H138.305V210.528C138.305 210.923 138.385 211.269 138.545 211.568C138.705 211.867 138.929 212.101 139.217 212.272C139.505 212.432 139.836 212.512 140.209 212.512C140.593 212.512 140.929 212.427 141.217 212.256C141.505 212.085 141.729 211.845 141.889 211.536C142.06 211.227 142.145 210.864 142.145 210.448V205.344H143.937V214H142.225V212.304L142.417 212.528C142.215 213.061 141.879 213.472 141.409 213.76C140.94 214.048 140.391 214.192 139.761 214.192ZM150.112 214.192C149.248 214.192 148.48 213.995 147.808 213.6C147.147 213.195 146.63 212.651 146.256 211.968C145.883 211.275 145.696 210.501 145.696 209.648C145.696 208.773 145.883 208 146.256 207.328C146.64 206.656 147.152 206.128 147.792 205.744C148.432 205.349 149.158 205.152 149.968 205.152C150.619 205.152 151.2 205.264 151.712 205.488C152.224 205.712 152.656 206.021 153.008 206.416C153.36 206.8 153.627 207.243 153.808 207.744C154 208.245 154.096 208.779 154.096 209.344C154.096 209.483 154.091 209.627 154.08 209.776C154.07 209.925 154.048 210.064 154.016 210.192H147.12V208.752H152.992L152.128 209.408C152.235 208.885 152.198 208.421 152.016 208.016C151.846 207.6 151.579 207.275 151.216 207.04C150.864 206.795 150.448 206.672 149.968 206.672C149.488 206.672 149.062 206.795 148.688 207.04C148.315 207.275 148.027 207.616 147.824 208.064C147.622 208.501 147.542 209.035 147.584 209.664C147.531 210.251 147.611 210.763 147.824 211.2C148.048 211.637 148.358 211.979 148.752 212.224C149.158 212.469 149.616 212.592 150.128 212.592C150.651 212.592 151.094 212.475 151.456 212.24C151.83 212.005 152.123 211.701 152.336 211.328L153.808 212.048C153.638 212.453 153.371 212.821 153.008 213.152C152.656 213.472 152.23 213.728 151.728 213.92C151.238 214.101 150.699 214.192 150.112 214.192ZM162.402 214.096C161.495 214.096 160.791 213.84 160.29 213.328C159.788 212.816 159.538 212.096 159.538 211.168V206.976H158.018V205.344H158.258C158.663 205.344 158.978 205.227 159.202 204.992C159.426 204.757 159.538 204.437 159.538 204.032V203.36H161.346V205.344H163.314V206.976H161.346V211.088C161.346 211.387 161.394 211.643 161.49 211.856C161.586 212.059 161.74 212.219 161.954 212.336C162.167 212.443 162.444 212.496 162.786 212.496C162.871 212.496 162.967 212.491 163.074 212.48C163.18 212.469 163.282 212.459 163.378 212.448V214C163.228 214.021 163.063 214.043 162.882 214.064C162.7 214.085 162.54 214.096 162.402 214.096ZM169.162 214.192C168.33 214.192 167.567 213.995 166.874 213.6C166.191 213.205 165.647 212.667 165.242 211.984C164.836 211.301 164.634 210.528 164.634 209.664C164.634 208.789 164.836 208.016 165.242 207.344C165.647 206.661 166.191 206.128 166.874 205.744C167.556 205.349 168.319 205.152 169.162 205.152C170.015 205.152 170.778 205.349 171.45 205.744C172.132 206.128 172.671 206.661 173.066 207.344C173.471 208.016 173.674 208.789 173.674 209.664C173.674 210.539 173.471 211.317 173.066 212C172.66 212.683 172.116 213.221 171.434 213.616C170.751 214 169.994 214.192 169.162 214.192ZM169.162 212.512C169.674 212.512 170.127 212.389 170.522 212.144C170.916 211.899 171.226 211.563 171.45 211.136C171.684 210.699 171.802 210.208 171.802 209.664C171.802 209.12 171.684 208.635 171.45 208.208C171.226 207.781 170.916 207.445 170.522 207.2C170.127 206.955 169.674 206.832 169.162 206.832C168.66 206.832 168.207 206.955 167.802 207.2C167.407 207.445 167.092 207.781 166.858 208.208C166.634 208.635 166.522 209.12 166.522 209.664C166.522 210.208 166.634 210.699 166.858 211.136C167.092 211.563 167.407 211.899 167.802 212.144C168.207 212.389 168.66 212.512 169.162 212.512ZM181.436 214.192C180.55 214.192 179.772 213.973 179.1 213.536C178.438 213.099 177.974 212.512 177.708 211.776L179.1 211.12C179.334 211.611 179.654 212 180.06 212.288C180.476 212.576 180.934 212.72 181.436 212.72C181.862 212.72 182.209 212.624 182.476 212.432C182.742 212.24 182.876 211.979 182.876 211.648C182.876 211.435 182.817 211.264 182.7 211.136C182.582 210.997 182.433 210.885 182.252 210.8C182.081 210.715 181.905 210.651 181.724 210.608L180.364 210.224C179.617 210.011 179.057 209.691 178.684 209.264C178.321 208.827 178.14 208.32 178.14 207.744C178.14 207.221 178.273 206.768 178.54 206.384C178.806 205.989 179.174 205.685 179.644 205.472C180.113 205.259 180.641 205.152 181.228 205.152C182.017 205.152 182.721 205.349 183.34 205.744C183.958 206.128 184.396 206.667 184.652 207.36L183.26 208.016C183.089 207.6 182.817 207.269 182.444 207.024C182.081 206.779 181.67 206.656 181.212 206.656C180.817 206.656 180.502 206.752 180.268 206.944C180.033 207.125 179.916 207.365 179.916 207.664C179.916 207.867 179.969 208.037 180.076 208.176C180.182 208.304 180.321 208.411 180.492 208.496C180.662 208.571 180.838 208.635 181.02 208.688L182.428 209.104C183.142 209.307 183.692 209.627 184.076 210.064C184.46 210.491 184.652 211.003 184.652 211.6C184.652 212.112 184.513 212.565 184.236 212.96C183.969 213.344 183.596 213.648 183.116 213.872C182.636 214.085 182.076 214.192 181.436 214.192ZM190.167 214.096C189.261 214.096 188.557 213.84 188.055 213.328C187.554 212.816 187.303 212.096 187.303 211.168V206.976H185.783V205.344H186.023C186.429 205.344 186.743 205.227 186.967 204.992C187.191 204.757 187.303 204.437 187.303 204.032V203.36H189.111V205.344H191.079V206.976H189.111V211.088C189.111 211.387 189.159 211.643 189.255 211.856C189.351 212.059 189.506 212.219 189.719 212.336C189.933 212.443 190.21 212.496 190.551 212.496C190.637 212.496 190.733 212.491 190.839 212.48C190.946 212.469 191.047 212.459 191.143 212.448V214C190.994 214.021 190.829 214.043 190.647 214.064C190.466 214.085 190.306 214.096 190.167 214.096ZM195.421 214.192C194.835 214.192 194.317 214.091 193.869 213.888C193.432 213.675 193.091 213.387 192.845 213.024C192.6 212.651 192.477 212.213 192.477 211.712C192.477 211.243 192.579 210.821 192.781 210.448C192.995 210.075 193.32 209.76 193.757 209.504C194.195 209.248 194.744 209.067 195.405 208.96L198.413 208.464V209.888L195.757 210.352C195.277 210.437 194.925 210.592 194.701 210.816C194.477 211.029 194.365 211.307 194.365 211.648C194.365 211.979 194.488 212.251 194.733 212.464C194.989 212.667 195.315 212.768 195.709 212.768C196.2 212.768 196.627 212.661 196.989 212.448C197.363 212.235 197.651 211.952 197.853 211.6C198.056 211.237 198.157 210.837 198.157 210.4V208.176C198.157 207.749 197.997 207.403 197.677 207.136C197.368 206.859 196.952 206.72 196.429 206.72C195.949 206.72 195.528 206.848 195.165 207.104C194.813 207.349 194.552 207.669 194.381 208.064L192.877 207.312C193.037 206.885 193.299 206.512 193.661 206.192C194.024 205.861 194.445 205.605 194.925 205.424C195.416 205.243 195.933 205.152 196.477 205.152C197.16 205.152 197.763 205.28 198.285 205.536C198.819 205.792 199.229 206.149 199.517 206.608C199.816 207.056 199.965 207.579 199.965 208.176V214H198.237V212.432L198.605 212.48C198.403 212.832 198.141 213.136 197.821 213.392C197.512 213.648 197.155 213.845 196.749 213.984C196.355 214.123 195.912 214.192 195.421 214.192ZM202.079 214V205.344H203.807V207.088L203.647 206.832C203.839 206.267 204.149 205.861 204.575 205.616C205.002 205.36 205.514 205.232 206.111 205.232H206.639V206.88H205.887C205.29 206.88 204.805 207.067 204.431 207.44C204.069 207.803 203.887 208.325 203.887 209.008V214H202.079ZM211.777 214.096C210.87 214.096 210.166 213.84 209.665 213.328C209.163 212.816 208.913 212.096 208.913 211.168V206.976H207.393V205.344H207.633C208.038 205.344 208.353 205.227 208.577 204.992C208.801 204.757 208.913 204.437 208.913 204.032V203.36H210.721V205.344H212.689V206.976H210.721V211.088C210.721 211.387 210.769 211.643 210.865 211.856C210.961 212.059 211.115 212.219 211.329 212.336C211.542 212.443 211.819 212.496 212.161 212.496C212.246 212.496 212.342 212.491 212.449 212.48C212.555 212.469 212.657 212.459 212.753 212.448V214C212.603 214.021 212.438 214.043 212.257 214.064C212.075 214.085 211.915 214.096 211.777 214.096ZM217.314 214V205.344H219.042V207.088L218.882 206.832C219.074 206.267 219.383 205.861 219.81 205.616C220.236 205.36 220.748 205.232 221.346 205.232H221.874V206.88H221.122C220.524 206.88 220.039 207.067 219.666 207.44C219.303 207.803 219.122 208.325 219.122 209.008V214H217.314ZM223.111 214V205.344H224.919V214H223.111ZM223.111 204.16V202.08H224.919V204.16H223.111ZM231.033 214.192C230.201 214.192 229.454 213.995 228.793 213.6C228.142 213.195 227.625 212.651 227.241 211.968C226.867 211.285 226.681 210.517 226.681 209.664C226.681 208.811 226.873 208.043 227.257 207.36C227.641 206.677 228.158 206.139 228.809 205.744C229.459 205.349 230.195 205.152 231.017 205.152C231.71 205.152 232.323 205.291 232.857 205.568C233.39 205.845 233.811 206.229 234.121 206.72L233.849 207.136V201.888H235.641V214H233.929V212.24L234.137 212.576C233.838 213.099 233.411 213.499 232.857 213.776C232.302 214.053 231.694 214.192 231.033 214.192ZM231.209 212.512C231.71 212.512 232.158 212.389 232.553 212.144C232.958 211.899 233.273 211.563 233.497 211.136C233.731 210.699 233.849 210.208 233.849 209.664C233.849 209.12 233.731 208.635 233.497 208.208C233.273 207.781 232.958 207.445 232.553 207.2C232.158 206.955 231.71 206.832 231.209 206.832C230.707 206.832 230.254 206.955 229.849 207.2C229.443 207.445 229.129 207.781 228.905 208.208C228.681 208.635 228.569 209.12 228.569 209.664C228.569 210.208 228.681 210.699 228.905 211.136C229.129 211.563 229.438 211.899 229.833 212.144C230.238 212.389 230.697 212.512 231.209 212.512ZM237.751 214V205.344H239.559V214H237.751ZM237.751 204.16V202.08H239.559V204.16H237.751ZM241.673 214V205.344H243.401V207.04L243.193 206.816C243.407 206.272 243.748 205.861 244.217 205.584C244.687 205.296 245.231 205.152 245.849 205.152C246.489 205.152 247.055 205.291 247.545 205.568C248.036 205.845 248.42 206.229 248.697 206.72C248.975 207.211 249.113 207.776 249.113 208.416V214H247.321V208.896C247.321 208.459 247.241 208.091 247.081 207.792C246.921 207.483 246.692 207.248 246.393 207.088C246.105 206.917 245.775 206.832 245.401 206.832C245.028 206.832 244.692 206.917 244.393 207.088C244.105 207.248 243.881 207.483 243.721 207.792C243.561 208.101 243.481 208.469 243.481 208.896V214H241.673ZM255.224 217.52C254.595 217.52 254.014 217.419 253.48 217.216C252.947 217.013 252.488 216.731 252.104 216.368C251.72 216.016 251.432 215.6 251.24 215.12L252.904 214.432C253.054 214.837 253.326 215.173 253.72 215.44C254.126 215.707 254.622 215.84 255.208 215.84C255.667 215.84 256.078 215.749 256.44 215.568C256.803 215.397 257.091 215.141 257.304 214.8C257.518 214.469 257.624 214.069 257.624 213.6V211.648L257.944 212.016C257.646 212.571 257.23 212.992 256.696 213.28C256.174 213.568 255.582 213.712 254.92 213.712C254.12 213.712 253.4 213.525 252.76 213.152C252.12 212.779 251.614 212.267 251.24 211.616C250.878 210.965 250.696 210.235 250.696 209.424C250.696 208.603 250.878 207.872 251.24 207.232C251.614 206.592 252.115 206.085 252.744 205.712C253.374 205.339 254.094 205.152 254.904 205.152C255.566 205.152 256.152 205.296 256.664 205.584C257.187 205.861 257.614 206.267 257.944 206.8L257.704 207.248V205.344H259.416V213.6C259.416 214.347 259.235 215.013 258.872 215.6C258.52 216.197 258.03 216.667 257.4 217.008C256.771 217.349 256.046 217.52 255.224 217.52ZM255.128 212.032C255.608 212.032 256.035 211.92 256.408 211.696C256.782 211.461 257.075 211.152 257.288 210.768C257.512 210.373 257.624 209.931 257.624 209.44C257.624 208.949 257.512 208.507 257.288 208.112C257.064 207.717 256.766 207.408 256.392 207.184C256.019 206.949 255.598 206.832 255.128 206.832C254.638 206.832 254.2 206.949 253.816 207.184C253.432 207.408 253.128 207.717 252.904 208.112C252.691 208.496 252.584 208.939 252.584 209.44C252.584 209.92 252.691 210.357 252.904 210.752C253.128 211.147 253.432 211.461 253.816 211.696C254.2 211.92 254.638 212.032 255.128 212.032ZM266.425 214L263.449 205.344H265.369L267.641 212.24H266.969L269.289 205.344H270.937L273.241 212.24H272.569L274.857 205.344H276.777L273.785 214H272.153L269.817 206.944H270.409L268.073 214H266.425ZM278.017 214V205.344H279.825V214H278.017ZM278.017 204.16V202.08H279.825V204.16H278.017ZM285.683 214.096C284.776 214.096 284.072 213.84 283.571 213.328C283.069 212.816 282.819 212.096 282.819 211.168V206.976H281.299V205.344H281.539C281.944 205.344 282.259 205.227 282.483 204.992C282.707 204.757 282.819 204.437 282.819 204.032V203.36H284.627V205.344H286.595V206.976H284.627V211.088C284.627 211.387 284.675 211.643 284.771 211.856C284.867 212.059 285.021 212.219 285.235 212.336C285.448 212.443 285.725 212.496 286.067 212.496C286.152 212.496 286.248 212.491 286.355 212.48C286.461 212.469 286.563 212.459 286.659 212.448V214C286.509 214.021 286.344 214.043 286.163 214.064C285.981 214.085 285.821 214.096 285.683 214.096ZM288.423 214V201.888H290.231V207.04L289.943 206.816C290.157 206.272 290.498 205.861 290.967 205.584C291.437 205.296 291.981 205.152 292.599 205.152C293.239 205.152 293.805 205.291 294.295 205.568C294.786 205.845 295.17 206.229 295.447 206.72C295.725 207.211 295.863 207.771 295.863 208.4V214H294.071V208.896C294.071 208.459 293.986 208.091 293.815 207.792C293.655 207.483 293.431 207.248 293.143 207.088C292.855 206.917 292.525 206.832 292.151 206.832C291.789 206.832 291.458 206.917 291.159 207.088C290.871 207.248 290.642 207.483 290.471 207.792C290.311 208.101 290.231 208.469 290.231 208.896V214H288.423ZM133.056 234.192C132.31 234.192 131.616 234.053 130.976 233.776C130.336 233.488 129.792 233.099 129.344 232.608C128.896 232.117 128.566 231.552 128.352 230.912L129.952 230.24C130.24 230.976 130.662 231.541 131.216 231.936C131.771 232.331 132.411 232.528 133.136 232.528C133.563 232.528 133.936 232.464 134.256 232.336C134.576 232.197 134.822 232.005 134.992 231.76C135.174 231.515 135.264 231.232 135.264 230.912C135.264 230.475 135.142 230.128 134.896 229.872C134.651 229.616 134.288 229.413 133.808 229.264L131.568 228.56C130.672 228.283 129.99 227.861 129.52 227.296C129.051 226.72 128.816 226.048 128.816 225.28C128.816 224.608 128.982 224.021 129.312 223.52C129.643 223.008 130.096 222.608 130.672 222.32C131.259 222.032 131.926 221.888 132.672 221.888C133.387 221.888 134.038 222.016 134.624 222.272C135.211 222.517 135.712 222.859 136.128 223.296C136.555 223.733 136.864 224.24 137.056 224.816L135.488 225.504C135.254 224.875 134.886 224.389 134.384 224.048C133.894 223.707 133.323 223.536 132.672 223.536C132.278 223.536 131.931 223.605 131.632 223.744C131.334 223.872 131.099 224.064 130.928 224.32C130.768 224.565 130.688 224.853 130.688 225.184C130.688 225.568 130.811 225.909 131.056 226.208C131.302 226.507 131.675 226.731 132.176 226.88L134.256 227.536C135.206 227.824 135.92 228.24 136.4 228.784C136.88 229.317 137.12 229.984 137.12 230.784C137.12 231.445 136.944 232.032 136.592 232.544C136.251 233.056 135.776 233.461 135.168 233.76C134.56 234.048 133.856 234.192 133.056 234.192ZM139.064 234V225.344H140.872V234H139.064ZM139.064 224.16V222.08H140.872V224.16H139.064ZM146.986 234.192C146.154 234.192 145.407 233.995 144.746 233.6C144.095 233.195 143.578 232.651 143.194 231.968C142.82 231.285 142.634 230.517 142.634 229.664C142.634 228.811 142.826 228.043 143.21 227.36C143.594 226.677 144.111 226.139 144.762 225.744C145.412 225.349 146.148 225.152 146.97 225.152C147.663 225.152 148.276 225.291 148.81 225.568C149.343 225.845 149.764 226.229 150.074 226.72L149.802 227.136V221.888H151.594V234H149.882V232.24L150.09 232.576C149.791 233.099 149.364 233.499 148.81 233.776C148.255 234.053 147.647 234.192 146.986 234.192ZM147.162 232.512C147.663 232.512 148.111 232.389 148.506 232.144C148.911 231.899 149.226 231.563 149.45 231.136C149.684 230.699 149.802 230.208 149.802 229.664C149.802 229.12 149.684 228.635 149.45 228.208C149.226 227.781 148.911 227.445 148.506 227.2C148.111 226.955 147.663 226.832 147.162 226.832C146.66 226.832 146.207 226.955 145.802 227.2C145.396 227.445 145.082 227.781 144.858 228.208C144.634 228.635 144.522 229.12 144.522 229.664C144.522 230.208 144.634 230.699 144.858 231.136C145.082 231.563 145.391 231.899 145.786 232.144C146.191 232.389 146.65 232.512 147.162 232.512ZM157.768 234.192C156.904 234.192 156.136 233.995 155.464 233.6C154.803 233.195 154.286 232.651 153.912 231.968C153.539 231.275 153.352 230.501 153.352 229.648C153.352 228.773 153.539 228 153.912 227.328C154.296 226.656 154.808 226.128 155.448 225.744C156.088 225.349 156.814 225.152 157.624 225.152C158.275 225.152 158.856 225.264 159.368 225.488C159.88 225.712 160.312 226.021 160.664 226.416C161.016 226.8 161.283 227.243 161.464 227.744C161.656 228.245 161.752 228.779 161.752 229.344C161.752 229.483 161.747 229.627 161.736 229.776C161.726 229.925 161.704 230.064 161.672 230.192H154.776V228.752H160.648L159.784 229.408C159.891 228.885 159.854 228.421 159.672 228.016C159.502 227.6 159.235 227.275 158.872 227.04C158.52 226.795 158.104 226.672 157.624 226.672C157.144 226.672 156.718 226.795 156.344 227.04C155.971 227.275 155.683 227.616 155.48 228.064C155.278 228.501 155.198 229.035 155.24 229.664C155.187 230.251 155.267 230.763 155.48 231.2C155.704 231.637 156.014 231.979 156.408 232.224C156.814 232.469 157.272 232.592 157.784 232.592C158.307 232.592 158.75 232.475 159.112 232.24C159.486 232.005 159.779 231.701 159.992 231.328L161.464 232.048C161.294 232.453 161.027 232.821 160.664 233.152C160.312 233.472 159.886 233.728 159.384 233.92C158.894 234.101 158.355 234.192 157.768 234.192ZM163.693 234V222.08H165.581V228.544L165.085 228.352L170.477 222.08H172.829L168.061 227.664L168.157 226.32L173.021 234H170.797L167.309 228.544L165.581 230.56V234H163.693ZM174.251 234V225.344H176.059V234H174.251ZM174.251 224.16V222.08H176.059V224.16H174.251ZM182.285 234.192C181.421 234.192 180.653 233.995 179.981 233.6C179.32 233.195 178.792 232.651 178.397 231.968C178.013 231.285 177.821 230.512 177.821 229.648C177.821 228.795 178.013 228.027 178.397 227.344C178.781 226.661 179.309 226.128 179.981 225.744C180.653 225.349 181.421 225.152 182.285 225.152C182.872 225.152 183.421 225.259 183.933 225.472C184.445 225.675 184.888 225.957 185.261 226.32C185.645 226.683 185.928 227.104 186.109 227.584L184.525 228.32C184.344 227.872 184.051 227.515 183.645 227.248C183.251 226.971 182.797 226.832 182.285 226.832C181.795 226.832 181.352 226.955 180.957 227.2C180.573 227.435 180.269 227.771 180.045 228.208C179.821 228.635 179.709 229.12 179.709 229.664C179.709 230.208 179.821 230.699 180.045 231.136C180.269 231.563 180.573 231.899 180.957 232.144C181.352 232.389 181.795 232.512 182.285 232.512C182.808 232.512 183.261 232.379 183.645 232.112C184.04 231.835 184.333 231.467 184.525 231.008L186.109 231.76C185.939 232.219 185.661 232.635 185.277 233.008C184.904 233.371 184.461 233.659 183.949 233.872C183.437 234.085 182.883 234.192 182.285 234.192ZM187.876 234V221.888H189.684V230L188.98 229.824L193.316 225.344H195.572L192.308 228.816L195.716 234H193.636L190.596 229.408L191.668 229.264L189.108 231.984L189.684 230.784V234H187.876ZM197.834 230.448L197.706 222.08H199.546L199.434 230.448H197.834ZM197.706 234V231.92H199.546V234H197.706Z" fill="#2C2E49"/>
</svg>
