<svg width="20" height="20" viewBox="0 0 20 20" fill="none" xmlns="http://www.w3.org/2000/svg">
<g clip-path="url(#clip0_299_2351)">
<path d="M10 2C14.41 2 18 5.59 18 10C18 14.41 14.41 18 10 18C5.59 18 2 14.41 2 10C2 5.59 5.59 2 10 2ZM10 0C4.48 0 0 4.48 0 10C0 15.52 4.48 20 10 20C15.52 20 20 15.52 20 10C20 4.48 15.52 0 10 0Z" fill="#2C2E49"/>
<path d="M9.06008 12.19V11.48C9.06008 11.12 9.12008 10.81 9.23008 10.55C9.35008 10.29 9.49008 10.07 9.67008 9.86999C9.85008 9.66999 10.0401 9.49999 10.2401 9.33999C10.4401 9.17999 10.6301 9.02999 10.8101 8.86999C10.9901 8.70999 11.1301 8.53999 11.2501 8.34999C11.3701 8.15999 11.4201 7.93999 11.4201 7.69999C11.4201 7.58999 11.4101 7.45999 11.3701 7.31999C11.3401 7.17999 11.2801 7.03999 11.1801 6.89999C11.0801 6.75999 10.9401 6.64999 10.7501 6.56999C10.5601 6.47999 10.3101 6.43999 9.99008 6.43999C9.65008 6.43999 9.37008 6.48999 9.17008 6.58999C8.96008 6.68999 8.81008 6.81999 8.70008 6.97999C8.59008 7.13999 8.52008 7.29999 8.49008 7.46999C8.46008 7.63999 8.44008 7.79999 8.44008 7.94999V8.14999C8.44008 8.21999 8.44008 8.27999 8.46008 8.34999H6.39008C6.39008 8.28999 6.37008 8.20999 6.35008 8.11999C6.34008 8.02999 6.33008 7.91999 6.33008 7.79999C6.33008 7.44999 6.38008 7.11999 6.49008 6.79999C6.60008 6.47999 6.75008 6.19999 6.96008 5.94999C7.17008 5.68999 7.43008 5.46999 7.74008 5.28999C8.05008 5.10999 8.41008 4.95999 8.81008 4.85999C9.21008 4.75999 9.66008 4.70999 10.1601 4.70999C10.5801 4.70999 10.9801 4.74999 11.3501 4.81999C11.7201 4.88999 12.0501 5.00999 12.3301 5.16999C12.6201 5.32999 12.8601 5.50999 13.0601 5.73999C13.2601 5.95999 13.4201 6.21999 13.5301 6.50999C13.6401 6.79999 13.7001 7.11999 13.7001 7.47999C13.7001 7.91999 13.6301 8.29999 13.5001 8.60999C13.3701 8.91999 13.2001 9.17999 12.9901 9.40999C12.7801 9.63999 12.5601 9.83999 12.3301 10.01C12.1001 10.18 11.8801 10.35 11.6701 10.52C11.4601 10.69 11.2901 10.86 11.1601 11.06C11.0301 11.25 10.9601 11.48 10.9601 11.75V12.19H9.06008ZM8.94008 15.27V13.15H11.0901V15.27H8.94008Z" fill="#2C2E49"/>
</g>
<defs>
<clipPath id="clip0_299_2351">
<rect width="20" height="20" fill="white"/>
</clipPath>
</defs>
</svg>
