<svg width="16" height="16" viewBox="0 0 16 16" fill="none" xmlns="http://www.w3.org/2000/svg">
<g clip-path="url(#clip0_189_2591)">
<path d="M7.99965 13.3599C10.9599 13.3599 13.3596 10.9601 13.3596 7.99989C13.3596 5.03965 10.9599 2.63989 7.99965 2.63989C5.0394 2.63989 2.63965 5.03965 2.63965 7.99989C2.63965 10.9601 5.0394 13.3599 7.99965 13.3599Z" stroke="#296AEB" stroke-width="1.6" stroke-linecap="round" stroke-linejoin="round"/>
<path d="M8 2.64005V0.800049" stroke="#296AEB" stroke-width="1.6" stroke-linecap="round" stroke-linejoin="round"/>
<path d="M2.6398 8H0.799805" stroke="#296AEB" stroke-width="1.6" stroke-linecap="round" stroke-linejoin="round"/>
<path d="M8 13.3601V15.2001" stroke="#296AEB" stroke-width="1.6" stroke-linecap="round" stroke-linejoin="round"/>
<path d="M13.3604 8H15.2004" stroke="#296AEB" stroke-width="1.6" stroke-linecap="round" stroke-linejoin="round"/>
<path d="M8.00004 9.96004C9.08252 9.96004 9.96004 9.08252 9.96004 8.00004C9.96004 6.91756 9.08252 6.04004 8.00004 6.04004C6.91756 6.04004 6.04004 6.91756 6.04004 8.00004C6.04004 9.08252 6.91756 9.96004 8.00004 9.96004Z" fill="#296AEB"/>
</g>
<defs>
<clipPath id="clip0_189_2591">
<rect width="16" height="16" fill="white"/>
</clipPath>
</defs>
</svg>
