<svg width="20" height="20" viewBox="0 0 20 20" fill="none" xmlns="http://www.w3.org/2000/svg">
<g clip-path="url(#clip0_299_2503)">
<path d="M3.16 15.6899C3.8 15.6899 4.32 16.2099 4.32 16.8499C4.32 17.4899 3.8 18.0099 3.16 18.0099C2.52 18.0099 2 17.4899 2 16.8499C2 16.2099 2.52 15.6899 3.16 15.6899ZM3.16 13.6899C1.42 13.6899 0 15.0999 0 16.8499C0 18.5999 1.41 20.0099 3.16 20.0099C4.91 20.0099 6.32 18.5999 6.32 16.8499C6.32 15.0999 4.91 13.6899 3.16 13.6899Z" fill="#86A0CA"/>
<path d="M16.8397 15.6899C17.4797 15.6899 17.9997 16.2099 17.9997 16.8499C17.9997 17.4899 17.4797 18.0099 16.8397 18.0099C16.1997 18.0099 15.6797 17.4899 15.6797 16.8499C15.6797 16.2099 16.1997 15.6899 16.8397 15.6899ZM16.8397 13.6899C15.0997 13.6899 13.6797 15.0999 13.6797 16.8499C13.6797 18.5999 15.0897 20.0099 16.8397 20.0099C18.5897 20.0099 19.9997 18.5999 19.9997 16.8499C19.9997 15.0999 18.5897 13.6899 16.8397 13.6899Z" fill="#86A0CA"/>
<path d="M14.6902 16.84H8.02016C8.02016 14.15 5.84016 11.98 3.16016 11.98L6.10016 2.87C6.46016 1.75 7.50016 1 8.67016 1H10.8502" stroke="#86A0CA" stroke-width="2" stroke-linecap="round" stroke-linejoin="round"/>
</g>
<defs>
<clipPath id="clip0_299_2503">
<rect width="20" height="20" fill="white"/>
</clipPath>
</defs>
</svg>
