<svg width="20" height="20" viewBox="0 0 20 20" fill="none" xmlns="http://www.w3.org/2000/svg">
<g clip-path="url(#clip0_1351_3216)">
<path d="M16.3203 3.68C16.7403 3.26 17.4403 3.29 17.8203 3.76C19.1903 5.47 20.0003 7.64 20.0003 10C20.0003 15.9 14.8903 20.6 8.86029 19.94C4.21029 19.42 0.47029 15.59 0.0402899 10.94C-0.20971 8.22 0.64029 5.69 2.19029 3.76C2.56029 3.3 3.26029 3.26 3.68029 3.69C4.04029 4.05 4.08029 4.61 3.76029 5.01C2.66029 6.38 2.00029 8.12 2.00029 10.01C2.00029 14.95 6.50029 18.85 11.6103 17.85C14.7403 17.24 17.2503 14.71 17.8503 11.58C18.3303 9.09 17.6403 6.75 16.2503 5.01C15.9303 4.61 15.9603 4.04 16.3203 3.69V3.68ZM11.0003 10V1C11.0003 0.45 10.5503 0 10.0003 0C9.45029 0 9.00029 0.45 9.00029 1V10C9.00029 10.55 9.45029 11 10.0003 11C10.5503 11 11.0003 10.55 11.0003 10Z" fill="#2C2E49"/>
</g>
<defs>
<clipPath id="clip0_1351_3216">
<rect width="20" height="20" fill="white"/>
</clipPath>
</defs>
</svg>
