<svg width="20" height="20" viewBox="0 0 20 20" fill="none" xmlns="http://www.w3.org/2000/svg">
<g clip-path="url(#clip0_299_2347)">
<path d="M9.99959 2C13.7596 2 16.8196 5.06 16.8196 8.82V13.12C16.8196 13.88 17.0296 14.62 17.4296 15.26L17.9896 16.15L19.6896 15.09L17.9696 16.2H2.02959L1.99959 16.15L2.55959 15.26C2.95959 14.62 3.16959 13.88 3.16959 13.12V8.82C3.16959 5.06 6.22959 2 9.98959 2M9.98959 0C5.12959 0 1.17959 3.95 1.17959 8.82V13.12C1.17959 13.5 1.06959 13.87 0.869594 14.2L0.309594 15.09C-0.540406 16.44 0.439593 18.2 2.02959 18.2H17.9596C19.5596 18.2 20.5296 16.45 19.6796 15.09L19.1196 14.2C18.9196 13.88 18.8096 13.5 18.8096 13.12V8.82C18.8196 3.95 14.8696 0 9.99959 0H9.98959Z" fill="#2C2E49"/>
<path d="M6.17969 16.18C6.17969 18.29 7.88969 20 9.99969 20C12.1097 20 13.8197 18.29 13.8197 16.18H6.17969Z" fill="#2C2E49"/>
</g>
<defs>
<clipPath id="clip0_299_2347">
<rect width="20" height="20" fill="white"/>
</clipPath>
</defs>
</svg>
