<svg width="60" height="60" viewBox="0 0 60 60" fill="none" xmlns="http://www.w3.org/2000/svg">
<circle cx="30" cy="30" r="30" fill="#F84848"/>
<path d="M23 29C22.4477 29 22 29.4477 22 30C22 30.5523 22.4477 31 23 31V29ZM37.7071 30.7071C38.0976 30.3166 38.0976 29.6834 37.7071 29.2929L31.3431 22.9289C30.9526 22.5384 30.3195 22.5384 29.9289 22.9289C29.5384 23.3195 29.5384 23.9526 29.9289 24.3431L35.5858 30L29.9289 35.6569C29.5384 36.0474 29.5384 36.6805 29.9289 37.0711C30.3195 37.4616 30.9526 37.4616 31.3431 37.0711L37.7071 30.7071ZM23 31H37V29H23V31Z" fill="white"/>
</svg>
