<svg width="80" height="80" viewBox="0 0 80 80" fill="none" xmlns="http://www.w3.org/2000/svg">
<g clip-path="url(#clip0_1024_2354)">
<path d="M0 19.2771C0 8.63065 8.63066 0 19.2771 0H60.7229C71.3693 0 80 8.63066 80 19.2771V60.7229C80 71.3693 71.3693 80 60.7229 80H19.2771C8.63065 80 0 71.3693 0 60.7229V19.2771Z" fill="white"/>
<path d="M45.2651 3.28208C46.8297 6.4737 50.8492 7.54885 53.7987 5.56776C57.8442 2.84994 63.2486 5.96866 62.9179 10.8342C62.6784 14.3798 65.6202 17.3216 69.1658 17.0821C74.0287 16.7514 77.1475 22.1558 74.4322 26.2013C72.4511 29.1508 73.5289 33.1703 76.7179 34.7349C81.094 36.88 81.094 43.12 76.7179 45.2651C73.5263 46.8297 72.4511 50.8492 74.4322 53.7987C77.1501 57.8468 74.0313 63.2486 69.1658 62.9179C65.6202 62.6784 62.6784 65.6201 62.9179 69.1658C63.2486 74.0287 57.8442 77.1475 53.7987 74.4322C50.8492 72.4511 46.8297 73.5289 45.2651 76.7179C43.12 81.094 36.88 81.094 34.7349 76.7179C33.1703 73.5263 29.1508 72.4511 26.2013 74.4322C22.1558 77.1501 16.7514 74.0313 17.0821 69.1658C17.3216 65.6201 14.3799 62.6784 10.8342 62.9179C5.97127 63.2486 2.85254 57.8442 5.56776 53.7987C7.54885 50.8492 6.4711 46.8297 3.28208 45.2651C-1.09403 43.12 -1.09403 36.88 3.28208 34.7349C6.4737 33.1703 7.54885 29.1508 5.56776 26.2013C2.84994 22.1532 5.96866 16.7514 10.8342 17.0821C14.3799 17.3216 17.3216 14.3798 17.0821 10.8342C16.7514 5.97127 22.1558 2.85254 26.2013 5.56776C29.1508 7.54885 33.1703 6.4711 34.7349 3.28208C36.88 -1.09403 43.12 -1.09403 45.2651 3.28208Z" fill="#296AEB"/>
<path d="M24 38.5L36 50.5L56 30.5" stroke="white" stroke-width="5.33333"/>
</g>
<defs>
<clipPath id="clip0_1024_2354">
<path d="M0 19.2771C0 8.63065 8.63066 0 19.2771 0H60.7229C71.3693 0 80 8.63066 80 19.2771V60.7229C80 71.3693 71.3693 80 60.7229 80H19.2771C8.63065 80 0 71.3693 0 60.7229V19.2771Z" fill="white"/>
</clipPath>
</defs>
</svg>
